<svg xmlns="http://www.w3.org/2000/svg" width="57mm" height="57mm" viewBox="0 0 57 57" role="img" aria-label="QR Code LW001-ST01">
  <title>QR Code LW001-ST01</title>
  <desc>https://adtm-media.github.io/ADTM-Connect/lucas-werny/?src=LW001-ST01</desc>
  <rect width="100%" height="100%" fill="#fff"/>
  <g fill="#000">
<rect x="4.00000" y="4.00000" width="1.00000" height="1.00000"/>
<rect x="5.00000" y="4.00000" width="1.00000" height="1.00000"/>
<rect x="6.00000" y="4.00000" width="1.00000" height="1.00000"/>
<rect x="7.00000" y="4.00000" width="1.00000" height="1.00000"/>
<rect x="8.00000" y="4.00000" width="1.00000" height="1.00000"/>
<rect x="9.00000" y="4.00000" width="1.00000" height="1.00000"/>
<rect x="10.00000" y="4.00000" width="1.00000" height="1.00000"/>
<rect x="12.00000" y="4.00000" width="1.00000" height="1.00000"/>
<rect x="13.00000" y="4.00000" width="1.00000" height="1.00000"/>
<rect x="15.00000" y="4.00000" width="1.00000" height="1.00000"/>
<rect x="16.00000" y="4.00000" width="1.00000" height="1.00000"/>
<rect x="18.00000" y="4.00000" width="1.00000" height="1.00000"/>
<rect x="21.00000" y="4.00000" width="1.00000" height="1.00000"/>
<rect x="27.00000" y="4.00000" width="1.00000" height="1.00000"/>
<rect x="31.00000" y="4.00000" width="1.00000" height="1.00000"/>
<rect x="32.00000" y="4.00000" width="1.00000" height="1.00000"/>
<rect x="33.00000" y="4.00000" width="1.00000" height="1.00000"/>
<rect x="34.00000" y="4.00000" width="1.00000" height="1.00000"/>
<rect x="36.00000" y="4.00000" width="1.00000" height="1.00000"/>
<rect x="37.00000" y="4.00000" width="1.00000" height="1.00000"/>
<rect x="38.00000" y="4.00000" width="1.00000" height="1.00000"/>
<rect x="39.00000" y="4.00000" width="1.00000" height="1.00000"/>
<rect x="40.00000" y="4.00000" width="1.00000" height="1.00000"/>
<rect x="44.00000" y="4.00000" width="1.00000" height="1.00000"/>
<rect x="46.00000" y="4.00000" width="1.00000" height="1.00000"/>
<rect x="47.00000" y="4.00000" width="1.00000" height="1.00000"/>
<rect x="48.00000" y="4.00000" width="1.00000" height="1.00000"/>
<rect x="49.00000" y="4.00000" width="1.00000" height="1.00000"/>
<rect x="50.00000" y="4.00000" width="1.00000" height="1.00000"/>
<rect x="51.00000" y="4.00000" width="1.00000" height="1.00000"/>
<rect x="52.00000" y="4.00000" width="1.00000" height="1.00000"/>
<rect x="4.00000" y="5.00000" width="1.00000" height="1.00000"/>
<rect x="10.00000" y="5.00000" width="1.00000" height="1.00000"/>
<rect x="13.00000" y="5.00000" width="1.00000" height="1.00000"/>
<rect x="14.00000" y="5.00000" width="1.00000" height="1.00000"/>
<rect x="16.00000" y="5.00000" width="1.00000" height="1.00000"/>
<rect x="17.00000" y="5.00000" width="1.00000" height="1.00000"/>
<rect x="18.00000" y="5.00000" width="1.00000" height="1.00000"/>
<rect x="19.00000" y="5.00000" width="1.00000" height="1.00000"/>
<rect x="20.00000" y="5.00000" width="1.00000" height="1.00000"/>
<rect x="21.00000" y="5.00000" width="1.00000" height="1.00000"/>
<rect x="22.00000" y="5.00000" width="1.00000" height="1.00000"/>
<rect x="23.00000" y="5.00000" width="1.00000" height="1.00000"/>
<rect x="26.00000" y="5.00000" width="1.00000" height="1.00000"/>
<rect x="27.00000" y="5.00000" width="1.00000" height="1.00000"/>
<rect x="28.00000" y="5.00000" width="1.00000" height="1.00000"/>
<rect x="32.00000" y="5.00000" width="1.00000" height="1.00000"/>
<rect x="33.00000" y="5.00000" width="1.00000" height="1.00000"/>
<rect x="37.00000" y="5.00000" width="1.00000" height="1.00000"/>
<rect x="38.00000" y="5.00000" width="1.00000" height="1.00000"/>
<rect x="42.00000" y="5.00000" width="1.00000" height="1.00000"/>
<rect x="43.00000" y="5.00000" width="1.00000" height="1.00000"/>
<rect x="44.00000" y="5.00000" width="1.00000" height="1.00000"/>
<rect x="46.00000" y="5.00000" width="1.00000" height="1.00000"/>
<rect x="52.00000" y="5.00000" width="1.00000" height="1.00000"/>
<rect x="4.00000" y="6.00000" width="1.00000" height="1.00000"/>
<rect x="6.00000" y="6.00000" width="1.00000" height="1.00000"/>
<rect x="7.00000" y="6.00000" width="1.00000" height="1.00000"/>
<rect x="8.00000" y="6.00000" width="1.00000" height="1.00000"/>
<rect x="10.00000" y="6.00000" width="1.00000" height="1.00000"/>
<rect x="13.00000" y="6.00000" width="1.00000" height="1.00000"/>
<rect x="17.00000" y="6.00000" width="1.00000" height="1.00000"/>
<rect x="18.00000" y="6.00000" width="1.00000" height="1.00000"/>
<rect x="19.00000" y="6.00000" width="1.00000" height="1.00000"/>
<rect x="20.00000" y="6.00000" width="1.00000" height="1.00000"/>
<rect x="22.00000" y="6.00000" width="1.00000" height="1.00000"/>
<rect x="23.00000" y="6.00000" width="1.00000" height="1.00000"/>
<rect x="24.00000" y="6.00000" width="1.00000" height="1.00000"/>
<rect x="26.00000" y="6.00000" width="1.00000" height="1.00000"/>
<rect x="28.00000" y="6.00000" width="1.00000" height="1.00000"/>
<rect x="31.00000" y="6.00000" width="1.00000" height="1.00000"/>
<rect x="33.00000" y="6.00000" width="1.00000" height="1.00000"/>
<rect x="36.00000" y="6.00000" width="1.00000" height="1.00000"/>
<rect x="37.00000" y="6.00000" width="1.00000" height="1.00000"/>
<rect x="39.00000" y="6.00000" width="1.00000" height="1.00000"/>
<rect x="43.00000" y="6.00000" width="1.00000" height="1.00000"/>
<rect x="44.00000" y="6.00000" width="1.00000" height="1.00000"/>
<rect x="46.00000" y="6.00000" width="1.00000" height="1.00000"/>
<rect x="48.00000" y="6.00000" width="1.00000" height="1.00000"/>
<rect x="49.00000" y="6.00000" width="1.00000" height="1.00000"/>
<rect x="50.00000" y="6.00000" width="1.00000" height="1.00000"/>
<rect x="52.00000" y="6.00000" width="1.00000" height="1.00000"/>
<rect x="4.00000" y="7.00000" width="1.00000" height="1.00000"/>
<rect x="6.00000" y="7.00000" width="1.00000" height="1.00000"/>
<rect x="7.00000" y="7.00000" width="1.00000" height="1.00000"/>
<rect x="8.00000" y="7.00000" width="1.00000" height="1.00000"/>
<rect x="10.00000" y="7.00000" width="1.00000" height="1.00000"/>
<rect x="12.00000" y="7.00000" width="1.00000" height="1.00000"/>
<rect x="15.00000" y="7.00000" width="1.00000" height="1.00000"/>
<rect x="17.00000" y="7.00000" width="1.00000" height="1.00000"/>
<rect x="18.00000" y="7.00000" width="1.00000" height="1.00000"/>
<rect x="19.00000" y="7.00000" width="1.00000" height="1.00000"/>
<rect x="22.00000" y="7.00000" width="1.00000" height="1.00000"/>
<rect x="25.00000" y="7.00000" width="1.00000" height="1.00000"/>
<rect x="26.00000" y="7.00000" width="1.00000" height="1.00000"/>
<rect x="28.00000" y="7.00000" width="1.00000" height="1.00000"/>
<rect x="31.00000" y="7.00000" width="1.00000" height="1.00000"/>
<rect x="32.00000" y="7.00000" width="1.00000" height="1.00000"/>
<rect x="34.00000" y="7.00000" width="1.00000" height="1.00000"/>
<rect x="35.00000" y="7.00000" width="1.00000" height="1.00000"/>
<rect x="36.00000" y="7.00000" width="1.00000" height="1.00000"/>
<rect x="37.00000" y="7.00000" width="1.00000" height="1.00000"/>
<rect x="38.00000" y="7.00000" width="1.00000" height="1.00000"/>
<rect x="43.00000" y="7.00000" width="1.00000" height="1.00000"/>
<rect x="46.00000" y="7.00000" width="1.00000" height="1.00000"/>
<rect x="48.00000" y="7.00000" width="1.00000" height="1.00000"/>
<rect x="49.00000" y="7.00000" width="1.00000" height="1.00000"/>
<rect x="50.00000" y="7.00000" width="1.00000" height="1.00000"/>
<rect x="52.00000" y="7.00000" width="1.00000" height="1.00000"/>
<rect x="4.00000" y="8.00000" width="1.00000" height="1.00000"/>
<rect x="6.00000" y="8.00000" width="1.00000" height="1.00000"/>
<rect x="7.00000" y="8.00000" width="1.00000" height="1.00000"/>
<rect x="8.00000" y="8.00000" width="1.00000" height="1.00000"/>
<rect x="10.00000" y="8.00000" width="1.00000" height="1.00000"/>
<rect x="13.00000" y="8.00000" width="1.00000" height="1.00000"/>
<rect x="14.00000" y="8.00000" width="1.00000" height="1.00000"/>
<rect x="15.00000" y="8.00000" width="1.00000" height="1.00000"/>
<rect x="18.00000" y="8.00000" width="1.00000" height="1.00000"/>
<rect x="19.00000" y="8.00000" width="1.00000" height="1.00000"/>
<rect x="21.00000" y="8.00000" width="1.00000" height="1.00000"/>
<rect x="22.00000" y="8.00000" width="1.00000" height="1.00000"/>
<rect x="23.00000" y="8.00000" width="1.00000" height="1.00000"/>
<rect x="24.00000" y="8.00000" width="1.00000" height="1.00000"/>
<rect x="26.00000" y="8.00000" width="1.00000" height="1.00000"/>
<rect x="27.00000" y="8.00000" width="1.00000" height="1.00000"/>
<rect x="28.00000" y="8.00000" width="1.00000" height="1.00000"/>
<rect x="29.00000" y="8.00000" width="1.00000" height="1.00000"/>
<rect x="30.00000" y="8.00000" width="1.00000" height="1.00000"/>
<rect x="32.00000" y="8.00000" width="1.00000" height="1.00000"/>
<rect x="34.00000" y="8.00000" width="1.00000" height="1.00000"/>
<rect x="35.00000" y="8.00000" width="1.00000" height="1.00000"/>
<rect x="36.00000" y="8.00000" width="1.00000" height="1.00000"/>
<rect x="37.00000" y="8.00000" width="1.00000" height="1.00000"/>
<rect x="38.00000" y="8.00000" width="1.00000" height="1.00000"/>
<rect x="40.00000" y="8.00000" width="1.00000" height="1.00000"/>
<rect x="46.00000" y="8.00000" width="1.00000" height="1.00000"/>
<rect x="48.00000" y="8.00000" width="1.00000" height="1.00000"/>
<rect x="49.00000" y="8.00000" width="1.00000" height="1.00000"/>
<rect x="50.00000" y="8.00000" width="1.00000" height="1.00000"/>
<rect x="52.00000" y="8.00000" width="1.00000" height="1.00000"/>
<rect x="4.00000" y="9.00000" width="1.00000" height="1.00000"/>
<rect x="10.00000" y="9.00000" width="1.00000" height="1.00000"/>
<rect x="15.00000" y="9.00000" width="1.00000" height="1.00000"/>
<rect x="16.00000" y="9.00000" width="1.00000" height="1.00000"/>
<rect x="18.00000" y="9.00000" width="1.00000" height="1.00000"/>
<rect x="19.00000" y="9.00000" width="1.00000" height="1.00000"/>
<rect x="21.00000" y="9.00000" width="1.00000" height="1.00000"/>
<rect x="22.00000" y="9.00000" width="1.00000" height="1.00000"/>
<rect x="25.00000" y="9.00000" width="1.00000" height="1.00000"/>
<rect x="26.00000" y="9.00000" width="1.00000" height="1.00000"/>
<rect x="30.00000" y="9.00000" width="1.00000" height="1.00000"/>
<rect x="31.00000" y="9.00000" width="1.00000" height="1.00000"/>
<rect x="35.00000" y="9.00000" width="1.00000" height="1.00000"/>
<rect x="37.00000" y="9.00000" width="1.00000" height="1.00000"/>
<rect x="38.00000" y="9.00000" width="1.00000" height="1.00000"/>
<rect x="41.00000" y="9.00000" width="1.00000" height="1.00000"/>
<rect x="42.00000" y="9.00000" width="1.00000" height="1.00000"/>
<rect x="46.00000" y="9.00000" width="1.00000" height="1.00000"/>
<rect x="52.00000" y="9.00000" width="1.00000" height="1.00000"/>
<rect x="4.00000" y="10.00000" width="1.00000" height="1.00000"/>
<rect x="5.00000" y="10.00000" width="1.00000" height="1.00000"/>
<rect x="6.00000" y="10.00000" width="1.00000" height="1.00000"/>
<rect x="7.00000" y="10.00000" width="1.00000" height="1.00000"/>
<rect x="8.00000" y="10.00000" width="1.00000" height="1.00000"/>
<rect x="9.00000" y="10.00000" width="1.00000" height="1.00000"/>
<rect x="10.00000" y="10.00000" width="1.00000" height="1.00000"/>
<rect x="12.00000" y="10.00000" width="1.00000" height="1.00000"/>
<rect x="14.00000" y="10.00000" width="1.00000" height="1.00000"/>
<rect x="16.00000" y="10.00000" width="1.00000" height="1.00000"/>
<rect x="18.00000" y="10.00000" width="1.00000" height="1.00000"/>
<rect x="20.00000" y="10.00000" width="1.00000" height="1.00000"/>
<rect x="22.00000" y="10.00000" width="1.00000" height="1.00000"/>
<rect x="24.00000" y="10.00000" width="1.00000" height="1.00000"/>
<rect x="26.00000" y="10.00000" width="1.00000" height="1.00000"/>
<rect x="28.00000" y="10.00000" width="1.00000" height="1.00000"/>
<rect x="30.00000" y="10.00000" width="1.00000" height="1.00000"/>
<rect x="32.00000" y="10.00000" width="1.00000" height="1.00000"/>
<rect x="34.00000" y="10.00000" width="1.00000" height="1.00000"/>
<rect x="36.00000" y="10.00000" width="1.00000" height="1.00000"/>
<rect x="38.00000" y="10.00000" width="1.00000" height="1.00000"/>
<rect x="40.00000" y="10.00000" width="1.00000" height="1.00000"/>
<rect x="42.00000" y="10.00000" width="1.00000" height="1.00000"/>
<rect x="44.00000" y="10.00000" width="1.00000" height="1.00000"/>
<rect x="46.00000" y="10.00000" width="1.00000" height="1.00000"/>
<rect x="47.00000" y="10.00000" width="1.00000" height="1.00000"/>
<rect x="48.00000" y="10.00000" width="1.00000" height="1.00000"/>
<rect x="49.00000" y="10.00000" width="1.00000" height="1.00000"/>
<rect x="50.00000" y="10.00000" width="1.00000" height="1.00000"/>
<rect x="51.00000" y="10.00000" width="1.00000" height="1.00000"/>
<rect x="52.00000" y="10.00000" width="1.00000" height="1.00000"/>
<rect x="13.00000" y="11.00000" width="1.00000" height="1.00000"/>
<rect x="17.00000" y="11.00000" width="1.00000" height="1.00000"/>
<rect x="22.00000" y="11.00000" width="1.00000" height="1.00000"/>
<rect x="23.00000" y="11.00000" width="1.00000" height="1.00000"/>
<rect x="24.00000" y="11.00000" width="1.00000" height="1.00000"/>
<rect x="26.00000" y="11.00000" width="1.00000" height="1.00000"/>
<rect x="30.00000" y="11.00000" width="1.00000" height="1.00000"/>
<rect x="33.00000" y="11.00000" width="1.00000" height="1.00000"/>
<rect x="34.00000" y="11.00000" width="1.00000" height="1.00000"/>
<rect x="35.00000" y="11.00000" width="1.00000" height="1.00000"/>
<rect x="36.00000" y="11.00000" width="1.00000" height="1.00000"/>
<rect x="38.00000" y="11.00000" width="1.00000" height="1.00000"/>
<rect x="39.00000" y="11.00000" width="1.00000" height="1.00000"/>
<rect x="42.00000" y="11.00000" width="1.00000" height="1.00000"/>
<rect x="44.00000" y="11.00000" width="1.00000" height="1.00000"/>
<rect x="6.00000" y="12.00000" width="1.00000" height="1.00000"/>
<rect x="8.00000" y="12.00000" width="1.00000" height="1.00000"/>
<rect x="9.00000" y="12.00000" width="1.00000" height="1.00000"/>
<rect x="10.00000" y="12.00000" width="1.00000" height="1.00000"/>
<rect x="12.00000" y="12.00000" width="1.00000" height="1.00000"/>
<rect x="14.00000" y="12.00000" width="1.00000" height="1.00000"/>
<rect x="15.00000" y="12.00000" width="1.00000" height="1.00000"/>
<rect x="16.00000" y="12.00000" width="1.00000" height="1.00000"/>
<rect x="17.00000" y="12.00000" width="1.00000" height="1.00000"/>
<rect x="18.00000" y="12.00000" width="1.00000" height="1.00000"/>
<rect x="19.00000" y="12.00000" width="1.00000" height="1.00000"/>
<rect x="22.00000" y="12.00000" width="1.00000" height="1.00000"/>
<rect x="24.00000" y="12.00000" width="1.00000" height="1.00000"/>
<rect x="25.00000" y="12.00000" width="1.00000" height="1.00000"/>
<rect x="26.00000" y="12.00000" width="1.00000" height="1.00000"/>
<rect x="27.00000" y="12.00000" width="1.00000" height="1.00000"/>
<rect x="28.00000" y="12.00000" width="1.00000" height="1.00000"/>
<rect x="29.00000" y="12.00000" width="1.00000" height="1.00000"/>
<rect x="30.00000" y="12.00000" width="1.00000" height="1.00000"/>
<rect x="31.00000" y="12.00000" width="1.00000" height="1.00000"/>
<rect x="32.00000" y="12.00000" width="1.00000" height="1.00000"/>
<rect x="34.00000" y="12.00000" width="1.00000" height="1.00000"/>
<rect x="36.00000" y="12.00000" width="1.00000" height="1.00000"/>
<rect x="39.00000" y="12.00000" width="1.00000" height="1.00000"/>
<rect x="41.00000" y="12.00000" width="1.00000" height="1.00000"/>
<rect x="42.00000" y="12.00000" width="1.00000" height="1.00000"/>
<rect x="45.00000" y="12.00000" width="1.00000" height="1.00000"/>
<rect x="49.00000" y="12.00000" width="1.00000" height="1.00000"/>
<rect x="52.00000" y="12.00000" width="1.00000" height="1.00000"/>
<rect x="4.00000" y="13.00000" width="1.00000" height="1.00000"/>
<rect x="6.00000" y="13.00000" width="1.00000" height="1.00000"/>
<rect x="7.00000" y="13.00000" width="1.00000" height="1.00000"/>
<rect x="8.00000" y="13.00000" width="1.00000" height="1.00000"/>
<rect x="9.00000" y="13.00000" width="1.00000" height="1.00000"/>
<rect x="13.00000" y="13.00000" width="1.00000" height="1.00000"/>
<rect x="14.00000" y="13.00000" width="1.00000" height="1.00000"/>
<rect x="15.00000" y="13.00000" width="1.00000" height="1.00000"/>
<rect x="18.00000" y="13.00000" width="1.00000" height="1.00000"/>
<rect x="19.00000" y="13.00000" width="1.00000" height="1.00000"/>
<rect x="21.00000" y="13.00000" width="1.00000" height="1.00000"/>
<rect x="25.00000" y="13.00000" width="1.00000" height="1.00000"/>
<rect x="26.00000" y="13.00000" width="1.00000" height="1.00000"/>
<rect x="27.00000" y="13.00000" width="1.00000" height="1.00000"/>
<rect x="29.00000" y="13.00000" width="1.00000" height="1.00000"/>
<rect x="30.00000" y="13.00000" width="1.00000" height="1.00000"/>
<rect x="31.00000" y="13.00000" width="1.00000" height="1.00000"/>
<rect x="32.00000" y="13.00000" width="1.00000" height="1.00000"/>
<rect x="34.00000" y="13.00000" width="1.00000" height="1.00000"/>
<rect x="35.00000" y="13.00000" width="1.00000" height="1.00000"/>
<rect x="39.00000" y="13.00000" width="1.00000" height="1.00000"/>
<rect x="40.00000" y="13.00000" width="1.00000" height="1.00000"/>
<rect x="48.00000" y="13.00000" width="1.00000" height="1.00000"/>
<rect x="49.00000" y="13.00000" width="1.00000" height="1.00000"/>
<rect x="51.00000" y="13.00000" width="1.00000" height="1.00000"/>
<rect x="52.00000" y="13.00000" width="1.00000" height="1.00000"/>
<rect x="6.00000" y="14.00000" width="1.00000" height="1.00000"/>
<rect x="7.00000" y="14.00000" width="1.00000" height="1.00000"/>
<rect x="9.00000" y="14.00000" width="1.00000" height="1.00000"/>
<rect x="10.00000" y="14.00000" width="1.00000" height="1.00000"/>
<rect x="11.00000" y="14.00000" width="1.00000" height="1.00000"/>
<rect x="12.00000" y="14.00000" width="1.00000" height="1.00000"/>
<rect x="14.00000" y="14.00000" width="1.00000" height="1.00000"/>
<rect x="15.00000" y="14.00000" width="1.00000" height="1.00000"/>
<rect x="23.00000" y="14.00000" width="1.00000" height="1.00000"/>
<rect x="28.00000" y="14.00000" width="1.00000" height="1.00000"/>
<rect x="30.00000" y="14.00000" width="1.00000" height="1.00000"/>
<rect x="35.00000" y="14.00000" width="1.00000" height="1.00000"/>
<rect x="37.00000" y="14.00000" width="1.00000" height="1.00000"/>
<rect x="39.00000" y="14.00000" width="1.00000" height="1.00000"/>
<rect x="41.00000" y="14.00000" width="1.00000" height="1.00000"/>
<rect x="43.00000" y="14.00000" width="1.00000" height="1.00000"/>
<rect x="48.00000" y="14.00000" width="1.00000" height="1.00000"/>
<rect x="49.00000" y="14.00000" width="1.00000" height="1.00000"/>
<rect x="51.00000" y="14.00000" width="1.00000" height="1.00000"/>
<rect x="52.00000" y="14.00000" width="1.00000" height="1.00000"/>
<rect x="7.00000" y="15.00000" width="1.00000" height="1.00000"/>
<rect x="8.00000" y="15.00000" width="1.00000" height="1.00000"/>
<rect x="11.00000" y="15.00000" width="1.00000" height="1.00000"/>
<rect x="12.00000" y="15.00000" width="1.00000" height="1.00000"/>
<rect x="15.00000" y="15.00000" width="1.00000" height="1.00000"/>
<rect x="18.00000" y="15.00000" width="1.00000" height="1.00000"/>
<rect x="20.00000" y="15.00000" width="1.00000" height="1.00000"/>
<rect x="21.00000" y="15.00000" width="1.00000" height="1.00000"/>
<rect x="23.00000" y="15.00000" width="1.00000" height="1.00000"/>
<rect x="25.00000" y="15.00000" width="1.00000" height="1.00000"/>
<rect x="26.00000" y="15.00000" width="1.00000" height="1.00000"/>
<rect x="27.00000" y="15.00000" width="1.00000" height="1.00000"/>
<rect x="28.00000" y="15.00000" width="1.00000" height="1.00000"/>
<rect x="33.00000" y="15.00000" width="1.00000" height="1.00000"/>
<rect x="34.00000" y="15.00000" width="1.00000" height="1.00000"/>
<rect x="35.00000" y="15.00000" width="1.00000" height="1.00000"/>
<rect x="37.00000" y="15.00000" width="1.00000" height="1.00000"/>
<rect x="41.00000" y="15.00000" width="1.00000" height="1.00000"/>
<rect x="46.00000" y="15.00000" width="1.00000" height="1.00000"/>
<rect x="52.00000" y="15.00000" width="1.00000" height="1.00000"/>
<rect x="4.00000" y="16.00000" width="1.00000" height="1.00000"/>
<rect x="5.00000" y="16.00000" width="1.00000" height="1.00000"/>
<rect x="6.00000" y="16.00000" width="1.00000" height="1.00000"/>
<rect x="9.00000" y="16.00000" width="1.00000" height="1.00000"/>
<rect x="10.00000" y="16.00000" width="1.00000" height="1.00000"/>
<rect x="12.00000" y="16.00000" width="1.00000" height="1.00000"/>
<rect x="14.00000" y="16.00000" width="1.00000" height="1.00000"/>
<rect x="16.00000" y="16.00000" width="1.00000" height="1.00000"/>
<rect x="17.00000" y="16.00000" width="1.00000" height="1.00000"/>
<rect x="19.00000" y="16.00000" width="1.00000" height="1.00000"/>
<rect x="20.00000" y="16.00000" width="1.00000" height="1.00000"/>
<rect x="22.00000" y="16.00000" width="1.00000" height="1.00000"/>
<rect x="25.00000" y="16.00000" width="1.00000" height="1.00000"/>
<rect x="27.00000" y="16.00000" width="1.00000" height="1.00000"/>
<rect x="29.00000" y="16.00000" width="1.00000" height="1.00000"/>
<rect x="32.00000" y="16.00000" width="1.00000" height="1.00000"/>
<rect x="33.00000" y="16.00000" width="1.00000" height="1.00000"/>
<rect x="36.00000" y="16.00000" width="1.00000" height="1.00000"/>
<rect x="37.00000" y="16.00000" width="1.00000" height="1.00000"/>
<rect x="39.00000" y="16.00000" width="1.00000" height="1.00000"/>
<rect x="40.00000" y="16.00000" width="1.00000" height="1.00000"/>
<rect x="42.00000" y="16.00000" width="1.00000" height="1.00000"/>
<rect x="45.00000" y="16.00000" width="1.00000" height="1.00000"/>
<rect x="46.00000" y="16.00000" width="1.00000" height="1.00000"/>
<rect x="47.00000" y="16.00000" width="1.00000" height="1.00000"/>
<rect x="48.00000" y="16.00000" width="1.00000" height="1.00000"/>
<rect x="49.00000" y="16.00000" width="1.00000" height="1.00000"/>
<rect x="51.00000" y="16.00000" width="1.00000" height="1.00000"/>
<rect x="5.00000" y="17.00000" width="1.00000" height="1.00000"/>
<rect x="6.00000" y="17.00000" width="1.00000" height="1.00000"/>
<rect x="7.00000" y="17.00000" width="1.00000" height="1.00000"/>
<rect x="9.00000" y="17.00000" width="1.00000" height="1.00000"/>
<rect x="12.00000" y="17.00000" width="1.00000" height="1.00000"/>
<rect x="14.00000" y="17.00000" width="1.00000" height="1.00000"/>
<rect x="15.00000" y="17.00000" width="1.00000" height="1.00000"/>
<rect x="16.00000" y="17.00000" width="1.00000" height="1.00000"/>
<rect x="20.00000" y="17.00000" width="1.00000" height="1.00000"/>
<rect x="21.00000" y="17.00000" width="1.00000" height="1.00000"/>
<rect x="23.00000" y="17.00000" width="1.00000" height="1.00000"/>
<rect x="25.00000" y="17.00000" width="1.00000" height="1.00000"/>
<rect x="26.00000" y="17.00000" width="1.00000" height="1.00000"/>
<rect x="28.00000" y="17.00000" width="1.00000" height="1.00000"/>
<rect x="31.00000" y="17.00000" width="1.00000" height="1.00000"/>
<rect x="32.00000" y="17.00000" width="1.00000" height="1.00000"/>
<rect x="34.00000" y="17.00000" width="1.00000" height="1.00000"/>
<rect x="36.00000" y="17.00000" width="1.00000" height="1.00000"/>
<rect x="41.00000" y="17.00000" width="1.00000" height="1.00000"/>
<rect x="43.00000" y="17.00000" width="1.00000" height="1.00000"/>
<rect x="47.00000" y="17.00000" width="1.00000" height="1.00000"/>
<rect x="49.00000" y="17.00000" width="1.00000" height="1.00000"/>
<rect x="51.00000" y="17.00000" width="1.00000" height="1.00000"/>
<rect x="52.00000" y="17.00000" width="1.00000" height="1.00000"/>
<rect x="4.00000" y="18.00000" width="1.00000" height="1.00000"/>
<rect x="7.00000" y="18.00000" width="1.00000" height="1.00000"/>
<rect x="8.00000" y="18.00000" width="1.00000" height="1.00000"/>
<rect x="9.00000" y="18.00000" width="1.00000" height="1.00000"/>
<rect x="10.00000" y="18.00000" width="1.00000" height="1.00000"/>
<rect x="12.00000" y="18.00000" width="1.00000" height="1.00000"/>
<rect x="16.00000" y="18.00000" width="1.00000" height="1.00000"/>
<rect x="19.00000" y="18.00000" width="1.00000" height="1.00000"/>
<rect x="20.00000" y="18.00000" width="1.00000" height="1.00000"/>
<rect x="25.00000" y="18.00000" width="1.00000" height="1.00000"/>
<rect x="26.00000" y="18.00000" width="1.00000" height="1.00000"/>
<rect x="27.00000" y="18.00000" width="1.00000" height="1.00000"/>
<rect x="30.00000" y="18.00000" width="1.00000" height="1.00000"/>
<rect x="32.00000" y="18.00000" width="1.00000" height="1.00000"/>
<rect x="33.00000" y="18.00000" width="1.00000" height="1.00000"/>
<rect x="34.00000" y="18.00000" width="1.00000" height="1.00000"/>
<rect x="36.00000" y="18.00000" width="1.00000" height="1.00000"/>
<rect x="37.00000" y="18.00000" width="1.00000" height="1.00000"/>
<rect x="38.00000" y="18.00000" width="1.00000" height="1.00000"/>
<rect x="39.00000" y="18.00000" width="1.00000" height="1.00000"/>
<rect x="41.00000" y="18.00000" width="1.00000" height="1.00000"/>
<rect x="46.00000" y="18.00000" width="1.00000" height="1.00000"/>
<rect x="47.00000" y="18.00000" width="1.00000" height="1.00000"/>
<rect x="48.00000" y="18.00000" width="1.00000" height="1.00000"/>
<rect x="49.00000" y="18.00000" width="1.00000" height="1.00000"/>
<rect x="50.00000" y="18.00000" width="1.00000" height="1.00000"/>
<rect x="52.00000" y="18.00000" width="1.00000" height="1.00000"/>
<rect x="5.00000" y="19.00000" width="1.00000" height="1.00000"/>
<rect x="6.00000" y="19.00000" width="1.00000" height="1.00000"/>
<rect x="7.00000" y="19.00000" width="1.00000" height="1.00000"/>
<rect x="8.00000" y="19.00000" width="1.00000" height="1.00000"/>
<rect x="9.00000" y="19.00000" width="1.00000" height="1.00000"/>
<rect x="11.00000" y="19.00000" width="1.00000" height="1.00000"/>
<rect x="12.00000" y="19.00000" width="1.00000" height="1.00000"/>
<rect x="14.00000" y="19.00000" width="1.00000" height="1.00000"/>
<rect x="15.00000" y="19.00000" width="1.00000" height="1.00000"/>
<rect x="16.00000" y="19.00000" width="1.00000" height="1.00000"/>
<rect x="17.00000" y="19.00000" width="1.00000" height="1.00000"/>
<rect x="21.00000" y="19.00000" width="1.00000" height="1.00000"/>
<rect x="22.00000" y="19.00000" width="1.00000" height="1.00000"/>
<rect x="24.00000" y="19.00000" width="1.00000" height="1.00000"/>
<rect x="27.00000" y="19.00000" width="1.00000" height="1.00000"/>
<rect x="31.00000" y="19.00000" width="1.00000" height="1.00000"/>
<rect x="32.00000" y="19.00000" width="1.00000" height="1.00000"/>
<rect x="34.00000" y="19.00000" width="1.00000" height="1.00000"/>
<rect x="35.00000" y="19.00000" width="1.00000" height="1.00000"/>
<rect x="36.00000" y="19.00000" width="1.00000" height="1.00000"/>
<rect x="37.00000" y="19.00000" width="1.00000" height="1.00000"/>
<rect x="39.00000" y="19.00000" width="1.00000" height="1.00000"/>
<rect x="40.00000" y="19.00000" width="1.00000" height="1.00000"/>
<rect x="41.00000" y="19.00000" width="1.00000" height="1.00000"/>
<rect x="43.00000" y="19.00000" width="1.00000" height="1.00000"/>
<rect x="44.00000" y="19.00000" width="1.00000" height="1.00000"/>
<rect x="46.00000" y="19.00000" width="1.00000" height="1.00000"/>
<rect x="47.00000" y="19.00000" width="1.00000" height="1.00000"/>
<rect x="48.00000" y="19.00000" width="1.00000" height="1.00000"/>
<rect x="49.00000" y="19.00000" width="1.00000" height="1.00000"/>
<rect x="52.00000" y="19.00000" width="1.00000" height="1.00000"/>
<rect x="5.00000" y="20.00000" width="1.00000" height="1.00000"/>
<rect x="6.00000" y="20.00000" width="1.00000" height="1.00000"/>
<rect x="7.00000" y="20.00000" width="1.00000" height="1.00000"/>
<rect x="8.00000" y="20.00000" width="1.00000" height="1.00000"/>
<rect x="9.00000" y="20.00000" width="1.00000" height="1.00000"/>
<rect x="10.00000" y="20.00000" width="1.00000" height="1.00000"/>
<rect x="11.00000" y="20.00000" width="1.00000" height="1.00000"/>
<rect x="12.00000" y="20.00000" width="1.00000" height="1.00000"/>
<rect x="15.00000" y="20.00000" width="1.00000" height="1.00000"/>
<rect x="20.00000" y="20.00000" width="1.00000" height="1.00000"/>
<rect x="23.00000" y="20.00000" width="1.00000" height="1.00000"/>
<rect x="24.00000" y="20.00000" width="1.00000" height="1.00000"/>
<rect x="25.00000" y="20.00000" width="1.00000" height="1.00000"/>
<rect x="31.00000" y="20.00000" width="1.00000" height="1.00000"/>
<rect x="32.00000" y="20.00000" width="1.00000" height="1.00000"/>
<rect x="36.00000" y="20.00000" width="1.00000" height="1.00000"/>
<rect x="37.00000" y="20.00000" width="1.00000" height="1.00000"/>
<rect x="38.00000" y="20.00000" width="1.00000" height="1.00000"/>
<rect x="39.00000" y="20.00000" width="1.00000" height="1.00000"/>
<rect x="40.00000" y="20.00000" width="1.00000" height="1.00000"/>
<rect x="41.00000" y="20.00000" width="1.00000" height="1.00000"/>
<rect x="42.00000" y="20.00000" width="1.00000" height="1.00000"/>
<rect x="44.00000" y="20.00000" width="1.00000" height="1.00000"/>
<rect x="47.00000" y="20.00000" width="1.00000" height="1.00000"/>
<rect x="48.00000" y="20.00000" width="1.00000" height="1.00000"/>
<rect x="49.00000" y="20.00000" width="1.00000" height="1.00000"/>
<rect x="50.00000" y="20.00000" width="1.00000" height="1.00000"/>
<rect x="51.00000" y="20.00000" width="1.00000" height="1.00000"/>
<rect x="6.00000" y="21.00000" width="1.00000" height="1.00000"/>
<rect x="9.00000" y="21.00000" width="1.00000" height="1.00000"/>
<rect x="12.00000" y="21.00000" width="1.00000" height="1.00000"/>
<rect x="13.00000" y="21.00000" width="1.00000" height="1.00000"/>
<rect x="15.00000" y="21.00000" width="1.00000" height="1.00000"/>
<rect x="16.00000" y="21.00000" width="1.00000" height="1.00000"/>
<rect x="18.00000" y="21.00000" width="1.00000" height="1.00000"/>
<rect x="21.00000" y="21.00000" width="1.00000" height="1.00000"/>
<rect x="24.00000" y="21.00000" width="1.00000" height="1.00000"/>
<rect x="27.00000" y="21.00000" width="1.00000" height="1.00000"/>
<rect x="28.00000" y="21.00000" width="1.00000" height="1.00000"/>
<rect x="29.00000" y="21.00000" width="1.00000" height="1.00000"/>
<rect x="31.00000" y="21.00000" width="1.00000" height="1.00000"/>
<rect x="32.00000" y="21.00000" width="1.00000" height="1.00000"/>
<rect x="37.00000" y="21.00000" width="1.00000" height="1.00000"/>
<rect x="39.00000" y="21.00000" width="1.00000" height="1.00000"/>
<rect x="40.00000" y="21.00000" width="1.00000" height="1.00000"/>
<rect x="41.00000" y="21.00000" width="1.00000" height="1.00000"/>
<rect x="44.00000" y="21.00000" width="1.00000" height="1.00000"/>
<rect x="46.00000" y="21.00000" width="1.00000" height="1.00000"/>
<rect x="49.00000" y="21.00000" width="1.00000" height="1.00000"/>
<rect x="50.00000" y="21.00000" width="1.00000" height="1.00000"/>
<rect x="51.00000" y="21.00000" width="1.00000" height="1.00000"/>
<rect x="52.00000" y="21.00000" width="1.00000" height="1.00000"/>
<rect x="4.00000" y="22.00000" width="1.00000" height="1.00000"/>
<rect x="7.00000" y="22.00000" width="1.00000" height="1.00000"/>
<rect x="10.00000" y="22.00000" width="1.00000" height="1.00000"/>
<rect x="14.00000" y="22.00000" width="1.00000" height="1.00000"/>
<rect x="17.00000" y="22.00000" width="1.00000" height="1.00000"/>
<rect x="18.00000" y="22.00000" width="1.00000" height="1.00000"/>
<rect x="19.00000" y="22.00000" width="1.00000" height="1.00000"/>
<rect x="20.00000" y="22.00000" width="1.00000" height="1.00000"/>
<rect x="28.00000" y="22.00000" width="1.00000" height="1.00000"/>
<rect x="30.00000" y="22.00000" width="1.00000" height="1.00000"/>
<rect x="31.00000" y="22.00000" width="1.00000" height="1.00000"/>
<rect x="32.00000" y="22.00000" width="1.00000" height="1.00000"/>
<rect x="33.00000" y="22.00000" width="1.00000" height="1.00000"/>
<rect x="34.00000" y="22.00000" width="1.00000" height="1.00000"/>
<rect x="36.00000" y="22.00000" width="1.00000" height="1.00000"/>
<rect x="37.00000" y="22.00000" width="1.00000" height="1.00000"/>
<rect x="38.00000" y="22.00000" width="1.00000" height="1.00000"/>
<rect x="40.00000" y="22.00000" width="1.00000" height="1.00000"/>
<rect x="41.00000" y="22.00000" width="1.00000" height="1.00000"/>
<rect x="42.00000" y="22.00000" width="1.00000" height="1.00000"/>
<rect x="46.00000" y="22.00000" width="1.00000" height="1.00000"/>
<rect x="50.00000" y="22.00000" width="1.00000" height="1.00000"/>
<rect x="51.00000" y="22.00000" width="1.00000" height="1.00000"/>
<rect x="52.00000" y="22.00000" width="1.00000" height="1.00000"/>
<rect x="4.00000" y="23.00000" width="1.00000" height="1.00000"/>
<rect x="6.00000" y="23.00000" width="1.00000" height="1.00000"/>
<rect x="7.00000" y="23.00000" width="1.00000" height="1.00000"/>
<rect x="8.00000" y="23.00000" width="1.00000" height="1.00000"/>
<rect x="12.00000" y="23.00000" width="1.00000" height="1.00000"/>
<rect x="14.00000" y="23.00000" width="1.00000" height="1.00000"/>
<rect x="15.00000" y="23.00000" width="1.00000" height="1.00000"/>
<rect x="16.00000" y="23.00000" width="1.00000" height="1.00000"/>
<rect x="18.00000" y="23.00000" width="1.00000" height="1.00000"/>
<rect x="19.00000" y="23.00000" width="1.00000" height="1.00000"/>
<rect x="20.00000" y="23.00000" width="1.00000" height="1.00000"/>
<rect x="22.00000" y="23.00000" width="1.00000" height="1.00000"/>
<rect x="23.00000" y="23.00000" width="1.00000" height="1.00000"/>
<rect x="24.00000" y="23.00000" width="1.00000" height="1.00000"/>
<rect x="25.00000" y="23.00000" width="1.00000" height="1.00000"/>
<rect x="27.00000" y="23.00000" width="1.00000" height="1.00000"/>
<rect x="28.00000" y="23.00000" width="1.00000" height="1.00000"/>
<rect x="30.00000" y="23.00000" width="1.00000" height="1.00000"/>
<rect x="32.00000" y="23.00000" width="1.00000" height="1.00000"/>
<rect x="33.00000" y="23.00000" width="1.00000" height="1.00000"/>
<rect x="36.00000" y="23.00000" width="1.00000" height="1.00000"/>
<rect x="39.00000" y="23.00000" width="1.00000" height="1.00000"/>
<rect x="40.00000" y="23.00000" width="1.00000" height="1.00000"/>
<rect x="42.00000" y="23.00000" width="1.00000" height="1.00000"/>
<rect x="44.00000" y="23.00000" width="1.00000" height="1.00000"/>
<rect x="45.00000" y="23.00000" width="1.00000" height="1.00000"/>
<rect x="48.00000" y="23.00000" width="1.00000" height="1.00000"/>
<rect x="7.00000" y="24.00000" width="1.00000" height="1.00000"/>
<rect x="10.00000" y="24.00000" width="1.00000" height="1.00000"/>
<rect x="12.00000" y="24.00000" width="1.00000" height="1.00000"/>
<rect x="13.00000" y="24.00000" width="1.00000" height="1.00000"/>
<rect x="14.00000" y="24.00000" width="1.00000" height="1.00000"/>
<rect x="15.00000" y="24.00000" width="1.00000" height="1.00000"/>
<rect x="18.00000" y="24.00000" width="1.00000" height="1.00000"/>
<rect x="19.00000" y="24.00000" width="1.00000" height="1.00000"/>
<rect x="21.00000" y="24.00000" width="1.00000" height="1.00000"/>
<rect x="23.00000" y="24.00000" width="1.00000" height="1.00000"/>
<rect x="24.00000" y="24.00000" width="1.00000" height="1.00000"/>
<rect x="28.00000" y="24.00000" width="1.00000" height="1.00000"/>
<rect x="29.00000" y="24.00000" width="1.00000" height="1.00000"/>
<rect x="31.00000" y="24.00000" width="1.00000" height="1.00000"/>
<rect x="33.00000" y="24.00000" width="1.00000" height="1.00000"/>
<rect x="38.00000" y="24.00000" width="1.00000" height="1.00000"/>
<rect x="39.00000" y="24.00000" width="1.00000" height="1.00000"/>
<rect x="40.00000" y="24.00000" width="1.00000" height="1.00000"/>
<rect x="41.00000" y="24.00000" width="1.00000" height="1.00000"/>
<rect x="43.00000" y="24.00000" width="1.00000" height="1.00000"/>
<rect x="46.00000" y="24.00000" width="1.00000" height="1.00000"/>
<rect x="47.00000" y="24.00000" width="1.00000" height="1.00000"/>
<rect x="48.00000" y="24.00000" width="1.00000" height="1.00000"/>
<rect x="49.00000" y="24.00000" width="1.00000" height="1.00000"/>
<rect x="51.00000" y="24.00000" width="1.00000" height="1.00000"/>
<rect x="5.00000" y="25.00000" width="1.00000" height="1.00000"/>
<rect x="7.00000" y="25.00000" width="1.00000" height="1.00000"/>
<rect x="12.00000" y="25.00000" width="1.00000" height="1.00000"/>
<rect x="13.00000" y="25.00000" width="1.00000" height="1.00000"/>
<rect x="16.00000" y="25.00000" width="1.00000" height="1.00000"/>
<rect x="20.00000" y="25.00000" width="1.00000" height="1.00000"/>
<rect x="21.00000" y="25.00000" width="1.00000" height="1.00000"/>
<rect x="22.00000" y="25.00000" width="1.00000" height="1.00000"/>
<rect x="23.00000" y="25.00000" width="1.00000" height="1.00000"/>
<rect x="25.00000" y="25.00000" width="1.00000" height="1.00000"/>
<rect x="26.00000" y="25.00000" width="1.00000" height="1.00000"/>
<rect x="27.00000" y="25.00000" width="1.00000" height="1.00000"/>
<rect x="28.00000" y="25.00000" width="1.00000" height="1.00000"/>
<rect x="29.00000" y="25.00000" width="1.00000" height="1.00000"/>
<rect x="31.00000" y="25.00000" width="1.00000" height="1.00000"/>
<rect x="32.00000" y="25.00000" width="1.00000" height="1.00000"/>
<rect x="36.00000" y="25.00000" width="1.00000" height="1.00000"/>
<rect x="39.00000" y="25.00000" width="1.00000" height="1.00000"/>
<rect x="40.00000" y="25.00000" width="1.00000" height="1.00000"/>
<rect x="41.00000" y="25.00000" width="1.00000" height="1.00000"/>
<rect x="43.00000" y="25.00000" width="1.00000" height="1.00000"/>
<rect x="47.00000" y="25.00000" width="1.00000" height="1.00000"/>
<rect x="51.00000" y="25.00000" width="1.00000" height="1.00000"/>
<rect x="52.00000" y="25.00000" width="1.00000" height="1.00000"/>
<rect x="4.00000" y="26.00000" width="1.00000" height="1.00000"/>
<rect x="6.00000" y="26.00000" width="1.00000" height="1.00000"/>
<rect x="8.00000" y="26.00000" width="1.00000" height="1.00000"/>
<rect x="9.00000" y="26.00000" width="1.00000" height="1.00000"/>
<rect x="10.00000" y="26.00000" width="1.00000" height="1.00000"/>
<rect x="11.00000" y="26.00000" width="1.00000" height="1.00000"/>
<rect x="12.00000" y="26.00000" width="1.00000" height="1.00000"/>
<rect x="13.00000" y="26.00000" width="1.00000" height="1.00000"/>
<rect x="14.00000" y="26.00000" width="1.00000" height="1.00000"/>
<rect x="18.00000" y="26.00000" width="1.00000" height="1.00000"/>
<rect x="20.00000" y="26.00000" width="1.00000" height="1.00000"/>
<rect x="21.00000" y="26.00000" width="1.00000" height="1.00000"/>
<rect x="24.00000" y="26.00000" width="1.00000" height="1.00000"/>
<rect x="25.00000" y="26.00000" width="1.00000" height="1.00000"/>
<rect x="26.00000" y="26.00000" width="1.00000" height="1.00000"/>
<rect x="27.00000" y="26.00000" width="1.00000" height="1.00000"/>
<rect x="28.00000" y="26.00000" width="1.00000" height="1.00000"/>
<rect x="29.00000" y="26.00000" width="1.00000" height="1.00000"/>
<rect x="30.00000" y="26.00000" width="1.00000" height="1.00000"/>
<rect x="31.00000" y="26.00000" width="1.00000" height="1.00000"/>
<rect x="32.00000" y="26.00000" width="1.00000" height="1.00000"/>
<rect x="33.00000" y="26.00000" width="1.00000" height="1.00000"/>
<rect x="34.00000" y="26.00000" width="1.00000" height="1.00000"/>
<rect x="36.00000" y="26.00000" width="1.00000" height="1.00000"/>
<rect x="39.00000" y="26.00000" width="1.00000" height="1.00000"/>
<rect x="43.00000" y="26.00000" width="1.00000" height="1.00000"/>
<rect x="44.00000" y="26.00000" width="1.00000" height="1.00000"/>
<rect x="45.00000" y="26.00000" width="1.00000" height="1.00000"/>
<rect x="46.00000" y="26.00000" width="1.00000" height="1.00000"/>
<rect x="47.00000" y="26.00000" width="1.00000" height="1.00000"/>
<rect x="48.00000" y="26.00000" width="1.00000" height="1.00000"/>
<rect x="49.00000" y="26.00000" width="1.00000" height="1.00000"/>
<rect x="50.00000" y="26.00000" width="1.00000" height="1.00000"/>
<rect x="51.00000" y="26.00000" width="1.00000" height="1.00000"/>
<rect x="52.00000" y="26.00000" width="1.00000" height="1.00000"/>
<rect x="5.00000" y="27.00000" width="1.00000" height="1.00000"/>
<rect x="6.00000" y="27.00000" width="1.00000" height="1.00000"/>
<rect x="8.00000" y="27.00000" width="1.00000" height="1.00000"/>
<rect x="12.00000" y="27.00000" width="1.00000" height="1.00000"/>
<rect x="14.00000" y="27.00000" width="1.00000" height="1.00000"/>
<rect x="17.00000" y="27.00000" width="1.00000" height="1.00000"/>
<rect x="18.00000" y="27.00000" width="1.00000" height="1.00000"/>
<rect x="21.00000" y="27.00000" width="1.00000" height="1.00000"/>
<rect x="23.00000" y="27.00000" width="1.00000" height="1.00000"/>
<rect x="24.00000" y="27.00000" width="1.00000" height="1.00000"/>
<rect x="26.00000" y="27.00000" width="1.00000" height="1.00000"/>
<rect x="30.00000" y="27.00000" width="1.00000" height="1.00000"/>
<rect x="34.00000" y="27.00000" width="1.00000" height="1.00000"/>
<rect x="35.00000" y="27.00000" width="1.00000" height="1.00000"/>
<rect x="37.00000" y="27.00000" width="1.00000" height="1.00000"/>
<rect x="40.00000" y="27.00000" width="1.00000" height="1.00000"/>
<rect x="41.00000" y="27.00000" width="1.00000" height="1.00000"/>
<rect x="42.00000" y="27.00000" width="1.00000" height="1.00000"/>
<rect x="44.00000" y="27.00000" width="1.00000" height="1.00000"/>
<rect x="48.00000" y="27.00000" width="1.00000" height="1.00000"/>
<rect x="4.00000" y="28.00000" width="1.00000" height="1.00000"/>
<rect x="6.00000" y="28.00000" width="1.00000" height="1.00000"/>
<rect x="8.00000" y="28.00000" width="1.00000" height="1.00000"/>
<rect x="10.00000" y="28.00000" width="1.00000" height="1.00000"/>
<rect x="12.00000" y="28.00000" width="1.00000" height="1.00000"/>
<rect x="13.00000" y="28.00000" width="1.00000" height="1.00000"/>
<rect x="15.00000" y="28.00000" width="1.00000" height="1.00000"/>
<rect x="16.00000" y="28.00000" width="1.00000" height="1.00000"/>
<rect x="19.00000" y="28.00000" width="1.00000" height="1.00000"/>
<rect x="20.00000" y="28.00000" width="1.00000" height="1.00000"/>
<rect x="23.00000" y="28.00000" width="1.00000" height="1.00000"/>
<rect x="24.00000" y="28.00000" width="1.00000" height="1.00000"/>
<rect x="26.00000" y="28.00000" width="1.00000" height="1.00000"/>
<rect x="28.00000" y="28.00000" width="1.00000" height="1.00000"/>
<rect x="30.00000" y="28.00000" width="1.00000" height="1.00000"/>
<rect x="33.00000" y="28.00000" width="1.00000" height="1.00000"/>
<rect x="34.00000" y="28.00000" width="1.00000" height="1.00000"/>
<rect x="35.00000" y="28.00000" width="1.00000" height="1.00000"/>
<rect x="39.00000" y="28.00000" width="1.00000" height="1.00000"/>
<rect x="40.00000" y="28.00000" width="1.00000" height="1.00000"/>
<rect x="41.00000" y="28.00000" width="1.00000" height="1.00000"/>
<rect x="42.00000" y="28.00000" width="1.00000" height="1.00000"/>
<rect x="43.00000" y="28.00000" width="1.00000" height="1.00000"/>
<rect x="44.00000" y="28.00000" width="1.00000" height="1.00000"/>
<rect x="46.00000" y="28.00000" width="1.00000" height="1.00000"/>
<rect x="48.00000" y="28.00000" width="1.00000" height="1.00000"/>
<rect x="51.00000" y="28.00000" width="1.00000" height="1.00000"/>
<rect x="52.00000" y="28.00000" width="1.00000" height="1.00000"/>
<rect x="8.00000" y="29.00000" width="1.00000" height="1.00000"/>
<rect x="12.00000" y="29.00000" width="1.00000" height="1.00000"/>
<rect x="13.00000" y="29.00000" width="1.00000" height="1.00000"/>
<rect x="14.00000" y="29.00000" width="1.00000" height="1.00000"/>
<rect x="15.00000" y="29.00000" width="1.00000" height="1.00000"/>
<rect x="16.00000" y="29.00000" width="1.00000" height="1.00000"/>
<rect x="18.00000" y="29.00000" width="1.00000" height="1.00000"/>
<rect x="19.00000" y="29.00000" width="1.00000" height="1.00000"/>
<rect x="20.00000" y="29.00000" width="1.00000" height="1.00000"/>
<rect x="26.00000" y="29.00000" width="1.00000" height="1.00000"/>
<rect x="30.00000" y="29.00000" width="1.00000" height="1.00000"/>
<rect x="33.00000" y="29.00000" width="1.00000" height="1.00000"/>
<rect x="34.00000" y="29.00000" width="1.00000" height="1.00000"/>
<rect x="35.00000" y="29.00000" width="1.00000" height="1.00000"/>
<rect x="36.00000" y="29.00000" width="1.00000" height="1.00000"/>
<rect x="37.00000" y="29.00000" width="1.00000" height="1.00000"/>
<rect x="39.00000" y="29.00000" width="1.00000" height="1.00000"/>
<rect x="43.00000" y="29.00000" width="1.00000" height="1.00000"/>
<rect x="44.00000" y="29.00000" width="1.00000" height="1.00000"/>
<rect x="48.00000" y="29.00000" width="1.00000" height="1.00000"/>
<rect x="50.00000" y="29.00000" width="1.00000" height="1.00000"/>
<rect x="51.00000" y="29.00000" width="1.00000" height="1.00000"/>
<rect x="4.00000" y="30.00000" width="1.00000" height="1.00000"/>
<rect x="5.00000" y="30.00000" width="1.00000" height="1.00000"/>
<rect x="8.00000" y="30.00000" width="1.00000" height="1.00000"/>
<rect x="9.00000" y="30.00000" width="1.00000" height="1.00000"/>
<rect x="10.00000" y="30.00000" width="1.00000" height="1.00000"/>
<rect x="11.00000" y="30.00000" width="1.00000" height="1.00000"/>
<rect x="12.00000" y="30.00000" width="1.00000" height="1.00000"/>
<rect x="13.00000" y="30.00000" width="1.00000" height="1.00000"/>
<rect x="18.00000" y="30.00000" width="1.00000" height="1.00000"/>
<rect x="19.00000" y="30.00000" width="1.00000" height="1.00000"/>
<rect x="20.00000" y="30.00000" width="1.00000" height="1.00000"/>
<rect x="22.00000" y="30.00000" width="1.00000" height="1.00000"/>
<rect x="24.00000" y="30.00000" width="1.00000" height="1.00000"/>
<rect x="26.00000" y="30.00000" width="1.00000" height="1.00000"/>
<rect x="27.00000" y="30.00000" width="1.00000" height="1.00000"/>
<rect x="28.00000" y="30.00000" width="1.00000" height="1.00000"/>
<rect x="29.00000" y="30.00000" width="1.00000" height="1.00000"/>
<rect x="30.00000" y="30.00000" width="1.00000" height="1.00000"/>
<rect x="31.00000" y="30.00000" width="1.00000" height="1.00000"/>
<rect x="35.00000" y="30.00000" width="1.00000" height="1.00000"/>
<rect x="41.00000" y="30.00000" width="1.00000" height="1.00000"/>
<rect x="44.00000" y="30.00000" width="1.00000" height="1.00000"/>
<rect x="45.00000" y="30.00000" width="1.00000" height="1.00000"/>
<rect x="46.00000" y="30.00000" width="1.00000" height="1.00000"/>
<rect x="47.00000" y="30.00000" width="1.00000" height="1.00000"/>
<rect x="48.00000" y="30.00000" width="1.00000" height="1.00000"/>
<rect x="49.00000" y="30.00000" width="1.00000" height="1.00000"/>
<rect x="51.00000" y="30.00000" width="1.00000" height="1.00000"/>
<rect x="7.00000" y="31.00000" width="1.00000" height="1.00000"/>
<rect x="9.00000" y="31.00000" width="1.00000" height="1.00000"/>
<rect x="11.00000" y="31.00000" width="1.00000" height="1.00000"/>
<rect x="13.00000" y="31.00000" width="1.00000" height="1.00000"/>
<rect x="15.00000" y="31.00000" width="1.00000" height="1.00000"/>
<rect x="18.00000" y="31.00000" width="1.00000" height="1.00000"/>
<rect x="24.00000" y="31.00000" width="1.00000" height="1.00000"/>
<rect x="25.00000" y="31.00000" width="1.00000" height="1.00000"/>
<rect x="27.00000" y="31.00000" width="1.00000" height="1.00000"/>
<rect x="28.00000" y="31.00000" width="1.00000" height="1.00000"/>
<rect x="31.00000" y="31.00000" width="1.00000" height="1.00000"/>
<rect x="32.00000" y="31.00000" width="1.00000" height="1.00000"/>
<rect x="33.00000" y="31.00000" width="1.00000" height="1.00000"/>
<rect x="35.00000" y="31.00000" width="1.00000" height="1.00000"/>
<rect x="39.00000" y="31.00000" width="1.00000" height="1.00000"/>
<rect x="40.00000" y="31.00000" width="1.00000" height="1.00000"/>
<rect x="41.00000" y="31.00000" width="1.00000" height="1.00000"/>
<rect x="46.00000" y="31.00000" width="1.00000" height="1.00000"/>
<rect x="51.00000" y="31.00000" width="1.00000" height="1.00000"/>
<rect x="52.00000" y="31.00000" width="1.00000" height="1.00000"/>
<rect x="4.00000" y="32.00000" width="1.00000" height="1.00000"/>
<rect x="6.00000" y="32.00000" width="1.00000" height="1.00000"/>
<rect x="7.00000" y="32.00000" width="1.00000" height="1.00000"/>
<rect x="9.00000" y="32.00000" width="1.00000" height="1.00000"/>
<rect x="10.00000" y="32.00000" width="1.00000" height="1.00000"/>
<rect x="11.00000" y="32.00000" width="1.00000" height="1.00000"/>
<rect x="12.00000" y="32.00000" width="1.00000" height="1.00000"/>
<rect x="14.00000" y="32.00000" width="1.00000" height="1.00000"/>
<rect x="16.00000" y="32.00000" width="1.00000" height="1.00000"/>
<rect x="19.00000" y="32.00000" width="1.00000" height="1.00000"/>
<rect x="21.00000" y="32.00000" width="1.00000" height="1.00000"/>
<rect x="29.00000" y="32.00000" width="1.00000" height="1.00000"/>
<rect x="31.00000" y="32.00000" width="1.00000" height="1.00000"/>
<rect x="33.00000" y="32.00000" width="1.00000" height="1.00000"/>
<rect x="36.00000" y="32.00000" width="1.00000" height="1.00000"/>
<rect x="37.00000" y="32.00000" width="1.00000" height="1.00000"/>
<rect x="38.00000" y="32.00000" width="1.00000" height="1.00000"/>
<rect x="39.00000" y="32.00000" width="1.00000" height="1.00000"/>
<rect x="40.00000" y="32.00000" width="1.00000" height="1.00000"/>
<rect x="41.00000" y="32.00000" width="1.00000" height="1.00000"/>
<rect x="46.00000" y="32.00000" width="1.00000" height="1.00000"/>
<rect x="47.00000" y="32.00000" width="1.00000" height="1.00000"/>
<rect x="48.00000" y="32.00000" width="1.00000" height="1.00000"/>
<rect x="50.00000" y="32.00000" width="1.00000" height="1.00000"/>
<rect x="51.00000" y="32.00000" width="1.00000" height="1.00000"/>
<rect x="5.00000" y="33.00000" width="1.00000" height="1.00000"/>
<rect x="8.00000" y="33.00000" width="1.00000" height="1.00000"/>
<rect x="14.00000" y="33.00000" width="1.00000" height="1.00000"/>
<rect x="15.00000" y="33.00000" width="1.00000" height="1.00000"/>
<rect x="18.00000" y="33.00000" width="1.00000" height="1.00000"/>
<rect x="21.00000" y="33.00000" width="1.00000" height="1.00000"/>
<rect x="23.00000" y="33.00000" width="1.00000" height="1.00000"/>
<rect x="26.00000" y="33.00000" width="1.00000" height="1.00000"/>
<rect x="27.00000" y="33.00000" width="1.00000" height="1.00000"/>
<rect x="28.00000" y="33.00000" width="1.00000" height="1.00000"/>
<rect x="29.00000" y="33.00000" width="1.00000" height="1.00000"/>
<rect x="30.00000" y="33.00000" width="1.00000" height="1.00000"/>
<rect x="32.00000" y="33.00000" width="1.00000" height="1.00000"/>
<rect x="47.00000" y="33.00000" width="1.00000" height="1.00000"/>
<rect x="50.00000" y="33.00000" width="1.00000" height="1.00000"/>
<rect x="52.00000" y="33.00000" width="1.00000" height="1.00000"/>
<rect x="4.00000" y="34.00000" width="1.00000" height="1.00000"/>
<rect x="5.00000" y="34.00000" width="1.00000" height="1.00000"/>
<rect x="6.00000" y="34.00000" width="1.00000" height="1.00000"/>
<rect x="7.00000" y="34.00000" width="1.00000" height="1.00000"/>
<rect x="8.00000" y="34.00000" width="1.00000" height="1.00000"/>
<rect x="9.00000" y="34.00000" width="1.00000" height="1.00000"/>
<rect x="10.00000" y="34.00000" width="1.00000" height="1.00000"/>
<rect x="14.00000" y="34.00000" width="1.00000" height="1.00000"/>
<rect x="15.00000" y="34.00000" width="1.00000" height="1.00000"/>
<rect x="16.00000" y="34.00000" width="1.00000" height="1.00000"/>
<rect x="17.00000" y="34.00000" width="1.00000" height="1.00000"/>
<rect x="19.00000" y="34.00000" width="1.00000" height="1.00000"/>
<rect x="22.00000" y="34.00000" width="1.00000" height="1.00000"/>
<rect x="23.00000" y="34.00000" width="1.00000" height="1.00000"/>
<rect x="24.00000" y="34.00000" width="1.00000" height="1.00000"/>
<rect x="25.00000" y="34.00000" width="1.00000" height="1.00000"/>
<rect x="28.00000" y="34.00000" width="1.00000" height="1.00000"/>
<rect x="30.00000" y="34.00000" width="1.00000" height="1.00000"/>
<rect x="31.00000" y="34.00000" width="1.00000" height="1.00000"/>
<rect x="34.00000" y="34.00000" width="1.00000" height="1.00000"/>
<rect x="36.00000" y="34.00000" width="1.00000" height="1.00000"/>
<rect x="40.00000" y="34.00000" width="1.00000" height="1.00000"/>
<rect x="44.00000" y="34.00000" width="1.00000" height="1.00000"/>
<rect x="46.00000" y="34.00000" width="1.00000" height="1.00000"/>
<rect x="47.00000" y="34.00000" width="1.00000" height="1.00000"/>
<rect x="48.00000" y="34.00000" width="1.00000" height="1.00000"/>
<rect x="50.00000" y="34.00000" width="1.00000" height="1.00000"/>
<rect x="51.00000" y="34.00000" width="1.00000" height="1.00000"/>
<rect x="52.00000" y="34.00000" width="1.00000" height="1.00000"/>
<rect x="6.00000" y="35.00000" width="1.00000" height="1.00000"/>
<rect x="8.00000" y="35.00000" width="1.00000" height="1.00000"/>
<rect x="11.00000" y="35.00000" width="1.00000" height="1.00000"/>
<rect x="12.00000" y="35.00000" width="1.00000" height="1.00000"/>
<rect x="13.00000" y="35.00000" width="1.00000" height="1.00000"/>
<rect x="14.00000" y="35.00000" width="1.00000" height="1.00000"/>
<rect x="18.00000" y="35.00000" width="1.00000" height="1.00000"/>
<rect x="19.00000" y="35.00000" width="1.00000" height="1.00000"/>
<rect x="20.00000" y="35.00000" width="1.00000" height="1.00000"/>
<rect x="21.00000" y="35.00000" width="1.00000" height="1.00000"/>
<rect x="22.00000" y="35.00000" width="1.00000" height="1.00000"/>
<rect x="25.00000" y="35.00000" width="1.00000" height="1.00000"/>
<rect x="30.00000" y="35.00000" width="1.00000" height="1.00000"/>
<rect x="31.00000" y="35.00000" width="1.00000" height="1.00000"/>
<rect x="37.00000" y="35.00000" width="1.00000" height="1.00000"/>
<rect x="38.00000" y="35.00000" width="1.00000" height="1.00000"/>
<rect x="45.00000" y="35.00000" width="1.00000" height="1.00000"/>
<rect x="46.00000" y="35.00000" width="1.00000" height="1.00000"/>
<rect x="47.00000" y="35.00000" width="1.00000" height="1.00000"/>
<rect x="52.00000" y="35.00000" width="1.00000" height="1.00000"/>
<rect x="8.00000" y="36.00000" width="1.00000" height="1.00000"/>
<rect x="10.00000" y="36.00000" width="1.00000" height="1.00000"/>
<rect x="15.00000" y="36.00000" width="1.00000" height="1.00000"/>
<rect x="16.00000" y="36.00000" width="1.00000" height="1.00000"/>
<rect x="18.00000" y="36.00000" width="1.00000" height="1.00000"/>
<rect x="22.00000" y="36.00000" width="1.00000" height="1.00000"/>
<rect x="25.00000" y="36.00000" width="1.00000" height="1.00000"/>
<rect x="27.00000" y="36.00000" width="1.00000" height="1.00000"/>
<rect x="28.00000" y="36.00000" width="1.00000" height="1.00000"/>
<rect x="32.00000" y="36.00000" width="1.00000" height="1.00000"/>
<rect x="33.00000" y="36.00000" width="1.00000" height="1.00000"/>
<rect x="36.00000" y="36.00000" width="1.00000" height="1.00000"/>
<rect x="37.00000" y="36.00000" width="1.00000" height="1.00000"/>
<rect x="38.00000" y="36.00000" width="1.00000" height="1.00000"/>
<rect x="40.00000" y="36.00000" width="1.00000" height="1.00000"/>
<rect x="41.00000" y="36.00000" width="1.00000" height="1.00000"/>
<rect x="45.00000" y="36.00000" width="1.00000" height="1.00000"/>
<rect x="46.00000" y="36.00000" width="1.00000" height="1.00000"/>
<rect x="47.00000" y="36.00000" width="1.00000" height="1.00000"/>
<rect x="49.00000" y="36.00000" width="1.00000" height="1.00000"/>
<rect x="51.00000" y="36.00000" width="1.00000" height="1.00000"/>
<rect x="4.00000" y="37.00000" width="1.00000" height="1.00000"/>
<rect x="5.00000" y="37.00000" width="1.00000" height="1.00000"/>
<rect x="7.00000" y="37.00000" width="1.00000" height="1.00000"/>
<rect x="12.00000" y="37.00000" width="1.00000" height="1.00000"/>
<rect x="13.00000" y="37.00000" width="1.00000" height="1.00000"/>
<rect x="14.00000" y="37.00000" width="1.00000" height="1.00000"/>
<rect x="16.00000" y="37.00000" width="1.00000" height="1.00000"/>
<rect x="17.00000" y="37.00000" width="1.00000" height="1.00000"/>
<rect x="18.00000" y="37.00000" width="1.00000" height="1.00000"/>
<rect x="23.00000" y="37.00000" width="1.00000" height="1.00000"/>
<rect x="24.00000" y="37.00000" width="1.00000" height="1.00000"/>
<rect x="25.00000" y="37.00000" width="1.00000" height="1.00000"/>
<rect x="26.00000" y="37.00000" width="1.00000" height="1.00000"/>
<rect x="28.00000" y="37.00000" width="1.00000" height="1.00000"/>
<rect x="29.00000" y="37.00000" width="1.00000" height="1.00000"/>
<rect x="31.00000" y="37.00000" width="1.00000" height="1.00000"/>
<rect x="32.00000" y="37.00000" width="1.00000" height="1.00000"/>
<rect x="34.00000" y="37.00000" width="1.00000" height="1.00000"/>
<rect x="37.00000" y="37.00000" width="1.00000" height="1.00000"/>
<rect x="43.00000" y="37.00000" width="1.00000" height="1.00000"/>
<rect x="44.00000" y="37.00000" width="1.00000" height="1.00000"/>
<rect x="45.00000" y="37.00000" width="1.00000" height="1.00000"/>
<rect x="47.00000" y="37.00000" width="1.00000" height="1.00000"/>
<rect x="49.00000" y="37.00000" width="1.00000" height="1.00000"/>
<rect x="51.00000" y="37.00000" width="1.00000" height="1.00000"/>
<rect x="52.00000" y="37.00000" width="1.00000" height="1.00000"/>
<rect x="7.00000" y="38.00000" width="1.00000" height="1.00000"/>
<rect x="8.00000" y="38.00000" width="1.00000" height="1.00000"/>
<rect x="10.00000" y="38.00000" width="1.00000" height="1.00000"/>
<rect x="11.00000" y="38.00000" width="1.00000" height="1.00000"/>
<rect x="15.00000" y="38.00000" width="1.00000" height="1.00000"/>
<rect x="17.00000" y="38.00000" width="1.00000" height="1.00000"/>
<rect x="20.00000" y="38.00000" width="1.00000" height="1.00000"/>
<rect x="21.00000" y="38.00000" width="1.00000" height="1.00000"/>
<rect x="24.00000" y="38.00000" width="1.00000" height="1.00000"/>
<rect x="28.00000" y="38.00000" width="1.00000" height="1.00000"/>
<rect x="29.00000" y="38.00000" width="1.00000" height="1.00000"/>
<rect x="31.00000" y="38.00000" width="1.00000" height="1.00000"/>
<rect x="32.00000" y="38.00000" width="1.00000" height="1.00000"/>
<rect x="33.00000" y="38.00000" width="1.00000" height="1.00000"/>
<rect x="36.00000" y="38.00000" width="1.00000" height="1.00000"/>
<rect x="40.00000" y="38.00000" width="1.00000" height="1.00000"/>
<rect x="43.00000" y="38.00000" width="1.00000" height="1.00000"/>
<rect x="44.00000" y="38.00000" width="1.00000" height="1.00000"/>
<rect x="45.00000" y="38.00000" width="1.00000" height="1.00000"/>
<rect x="46.00000" y="38.00000" width="1.00000" height="1.00000"/>
<rect x="47.00000" y="38.00000" width="1.00000" height="1.00000"/>
<rect x="52.00000" y="38.00000" width="1.00000" height="1.00000"/>
<rect x="5.00000" y="39.00000" width="1.00000" height="1.00000"/>
<rect x="7.00000" y="39.00000" width="1.00000" height="1.00000"/>
<rect x="9.00000" y="39.00000" width="1.00000" height="1.00000"/>
<rect x="11.00000" y="39.00000" width="1.00000" height="1.00000"/>
<rect x="12.00000" y="39.00000" width="1.00000" height="1.00000"/>
<rect x="13.00000" y="39.00000" width="1.00000" height="1.00000"/>
<rect x="20.00000" y="39.00000" width="1.00000" height="1.00000"/>
<rect x="22.00000" y="39.00000" width="1.00000" height="1.00000"/>
<rect x="23.00000" y="39.00000" width="1.00000" height="1.00000"/>
<rect x="25.00000" y="39.00000" width="1.00000" height="1.00000"/>
<rect x="26.00000" y="39.00000" width="1.00000" height="1.00000"/>
<rect x="27.00000" y="39.00000" width="1.00000" height="1.00000"/>
<rect x="29.00000" y="39.00000" width="1.00000" height="1.00000"/>
<rect x="36.00000" y="39.00000" width="1.00000" height="1.00000"/>
<rect x="39.00000" y="39.00000" width="1.00000" height="1.00000"/>
<rect x="40.00000" y="39.00000" width="1.00000" height="1.00000"/>
<rect x="41.00000" y="39.00000" width="1.00000" height="1.00000"/>
<rect x="44.00000" y="39.00000" width="1.00000" height="1.00000"/>
<rect x="45.00000" y="39.00000" width="1.00000" height="1.00000"/>
<rect x="47.00000" y="39.00000" width="1.00000" height="1.00000"/>
<rect x="51.00000" y="39.00000" width="1.00000" height="1.00000"/>
<rect x="5.00000" y="40.00000" width="1.00000" height="1.00000"/>
<rect x="6.00000" y="40.00000" width="1.00000" height="1.00000"/>
<rect x="7.00000" y="40.00000" width="1.00000" height="1.00000"/>
<rect x="10.00000" y="40.00000" width="1.00000" height="1.00000"/>
<rect x="11.00000" y="40.00000" width="1.00000" height="1.00000"/>
<rect x="12.00000" y="40.00000" width="1.00000" height="1.00000"/>
<rect x="13.00000" y="40.00000" width="1.00000" height="1.00000"/>
<rect x="14.00000" y="40.00000" width="1.00000" height="1.00000"/>
<rect x="15.00000" y="40.00000" width="1.00000" height="1.00000"/>
<rect x="16.00000" y="40.00000" width="1.00000" height="1.00000"/>
<rect x="18.00000" y="40.00000" width="1.00000" height="1.00000"/>
<rect x="20.00000" y="40.00000" width="1.00000" height="1.00000"/>
<rect x="25.00000" y="40.00000" width="1.00000" height="1.00000"/>
<rect x="28.00000" y="40.00000" width="1.00000" height="1.00000"/>
<rect x="30.00000" y="40.00000" width="1.00000" height="1.00000"/>
<rect x="32.00000" y="40.00000" width="1.00000" height="1.00000"/>
<rect x="36.00000" y="40.00000" width="1.00000" height="1.00000"/>
<rect x="38.00000" y="40.00000" width="1.00000" height="1.00000"/>
<rect x="40.00000" y="40.00000" width="1.00000" height="1.00000"/>
<rect x="42.00000" y="40.00000" width="1.00000" height="1.00000"/>
<rect x="44.00000" y="40.00000" width="1.00000" height="1.00000"/>
<rect x="46.00000" y="40.00000" width="1.00000" height="1.00000"/>
<rect x="51.00000" y="40.00000" width="1.00000" height="1.00000"/>
<rect x="52.00000" y="40.00000" width="1.00000" height="1.00000"/>
<rect x="4.00000" y="41.00000" width="1.00000" height="1.00000"/>
<rect x="9.00000" y="41.00000" width="1.00000" height="1.00000"/>
<rect x="13.00000" y="41.00000" width="1.00000" height="1.00000"/>
<rect x="14.00000" y="41.00000" width="1.00000" height="1.00000"/>
<rect x="18.00000" y="41.00000" width="1.00000" height="1.00000"/>
<rect x="19.00000" y="41.00000" width="1.00000" height="1.00000"/>
<rect x="21.00000" y="41.00000" width="1.00000" height="1.00000"/>
<rect x="23.00000" y="41.00000" width="1.00000" height="1.00000"/>
<rect x="26.00000" y="41.00000" width="1.00000" height="1.00000"/>
<rect x="27.00000" y="41.00000" width="1.00000" height="1.00000"/>
<rect x="28.00000" y="41.00000" width="1.00000" height="1.00000"/>
<rect x="29.00000" y="41.00000" width="1.00000" height="1.00000"/>
<rect x="30.00000" y="41.00000" width="1.00000" height="1.00000"/>
<rect x="32.00000" y="41.00000" width="1.00000" height="1.00000"/>
<rect x="34.00000" y="41.00000" width="1.00000" height="1.00000"/>
<rect x="35.00000" y="41.00000" width="1.00000" height="1.00000"/>
<rect x="37.00000" y="41.00000" width="1.00000" height="1.00000"/>
<rect x="41.00000" y="41.00000" width="1.00000" height="1.00000"/>
<rect x="44.00000" y="41.00000" width="1.00000" height="1.00000"/>
<rect x="50.00000" y="41.00000" width="1.00000" height="1.00000"/>
<rect x="51.00000" y="41.00000" width="1.00000" height="1.00000"/>
<rect x="52.00000" y="41.00000" width="1.00000" height="1.00000"/>
<rect x="5.00000" y="42.00000" width="1.00000" height="1.00000"/>
<rect x="9.00000" y="42.00000" width="1.00000" height="1.00000"/>
<rect x="10.00000" y="42.00000" width="1.00000" height="1.00000"/>
<rect x="11.00000" y="42.00000" width="1.00000" height="1.00000"/>
<rect x="12.00000" y="42.00000" width="1.00000" height="1.00000"/>
<rect x="13.00000" y="42.00000" width="1.00000" height="1.00000"/>
<rect x="16.00000" y="42.00000" width="1.00000" height="1.00000"/>
<rect x="17.00000" y="42.00000" width="1.00000" height="1.00000"/>
<rect x="18.00000" y="42.00000" width="1.00000" height="1.00000"/>
<rect x="22.00000" y="42.00000" width="1.00000" height="1.00000"/>
<rect x="25.00000" y="42.00000" width="1.00000" height="1.00000"/>
<rect x="26.00000" y="42.00000" width="1.00000" height="1.00000"/>
<rect x="27.00000" y="42.00000" width="1.00000" height="1.00000"/>
<rect x="29.00000" y="42.00000" width="1.00000" height="1.00000"/>
<rect x="33.00000" y="42.00000" width="1.00000" height="1.00000"/>
<rect x="36.00000" y="42.00000" width="1.00000" height="1.00000"/>
<rect x="37.00000" y="42.00000" width="1.00000" height="1.00000"/>
<rect x="40.00000" y="42.00000" width="1.00000" height="1.00000"/>
<rect x="41.00000" y="42.00000" width="1.00000" height="1.00000"/>
<rect x="43.00000" y="42.00000" width="1.00000" height="1.00000"/>
<rect x="45.00000" y="42.00000" width="1.00000" height="1.00000"/>
<rect x="46.00000" y="42.00000" width="1.00000" height="1.00000"/>
<rect x="47.00000" y="42.00000" width="1.00000" height="1.00000"/>
<rect x="48.00000" y="42.00000" width="1.00000" height="1.00000"/>
<rect x="51.00000" y="42.00000" width="1.00000" height="1.00000"/>
<rect x="52.00000" y="42.00000" width="1.00000" height="1.00000"/>
<rect x="5.00000" y="43.00000" width="1.00000" height="1.00000"/>
<rect x="6.00000" y="43.00000" width="1.00000" height="1.00000"/>
<rect x="7.00000" y="43.00000" width="1.00000" height="1.00000"/>
<rect x="11.00000" y="43.00000" width="1.00000" height="1.00000"/>
<rect x="12.00000" y="43.00000" width="1.00000" height="1.00000"/>
<rect x="16.00000" y="43.00000" width="1.00000" height="1.00000"/>
<rect x="18.00000" y="43.00000" width="1.00000" height="1.00000"/>
<rect x="23.00000" y="43.00000" width="1.00000" height="1.00000"/>
<rect x="24.00000" y="43.00000" width="1.00000" height="1.00000"/>
<rect x="25.00000" y="43.00000" width="1.00000" height="1.00000"/>
<rect x="26.00000" y="43.00000" width="1.00000" height="1.00000"/>
<rect x="28.00000" y="43.00000" width="1.00000" height="1.00000"/>
<rect x="29.00000" y="43.00000" width="1.00000" height="1.00000"/>
<rect x="30.00000" y="43.00000" width="1.00000" height="1.00000"/>
<rect x="31.00000" y="43.00000" width="1.00000" height="1.00000"/>
<rect x="32.00000" y="43.00000" width="1.00000" height="1.00000"/>
<rect x="36.00000" y="43.00000" width="1.00000" height="1.00000"/>
<rect x="38.00000" y="43.00000" width="1.00000" height="1.00000"/>
<rect x="40.00000" y="43.00000" width="1.00000" height="1.00000"/>
<rect x="42.00000" y="43.00000" width="1.00000" height="1.00000"/>
<rect x="46.00000" y="43.00000" width="1.00000" height="1.00000"/>
<rect x="50.00000" y="43.00000" width="1.00000" height="1.00000"/>
<rect x="4.00000" y="44.00000" width="1.00000" height="1.00000"/>
<rect x="5.00000" y="44.00000" width="1.00000" height="1.00000"/>
<rect x="6.00000" y="44.00000" width="1.00000" height="1.00000"/>
<rect x="10.00000" y="44.00000" width="1.00000" height="1.00000"/>
<rect x="11.00000" y="44.00000" width="1.00000" height="1.00000"/>
<rect x="13.00000" y="44.00000" width="1.00000" height="1.00000"/>
<rect x="15.00000" y="44.00000" width="1.00000" height="1.00000"/>
<rect x="16.00000" y="44.00000" width="1.00000" height="1.00000"/>
<rect x="19.00000" y="44.00000" width="1.00000" height="1.00000"/>
<rect x="20.00000" y="44.00000" width="1.00000" height="1.00000"/>
<rect x="23.00000" y="44.00000" width="1.00000" height="1.00000"/>
<rect x="24.00000" y="44.00000" width="1.00000" height="1.00000"/>
<rect x="26.00000" y="44.00000" width="1.00000" height="1.00000"/>
<rect x="27.00000" y="44.00000" width="1.00000" height="1.00000"/>
<rect x="28.00000" y="44.00000" width="1.00000" height="1.00000"/>
<rect x="29.00000" y="44.00000" width="1.00000" height="1.00000"/>
<rect x="30.00000" y="44.00000" width="1.00000" height="1.00000"/>
<rect x="32.00000" y="44.00000" width="1.00000" height="1.00000"/>
<rect x="33.00000" y="44.00000" width="1.00000" height="1.00000"/>
<rect x="36.00000" y="44.00000" width="1.00000" height="1.00000"/>
<rect x="39.00000" y="44.00000" width="1.00000" height="1.00000"/>
<rect x="40.00000" y="44.00000" width="1.00000" height="1.00000"/>
<rect x="44.00000" y="44.00000" width="1.00000" height="1.00000"/>
<rect x="45.00000" y="44.00000" width="1.00000" height="1.00000"/>
<rect x="46.00000" y="44.00000" width="1.00000" height="1.00000"/>
<rect x="47.00000" y="44.00000" width="1.00000" height="1.00000"/>
<rect x="48.00000" y="44.00000" width="1.00000" height="1.00000"/>
<rect x="50.00000" y="44.00000" width="1.00000" height="1.00000"/>
<rect x="12.00000" y="45.00000" width="1.00000" height="1.00000"/>
<rect x="19.00000" y="45.00000" width="1.00000" height="1.00000"/>
<rect x="20.00000" y="45.00000" width="1.00000" height="1.00000"/>
<rect x="21.00000" y="45.00000" width="1.00000" height="1.00000"/>
<rect x="22.00000" y="45.00000" width="1.00000" height="1.00000"/>
<rect x="24.00000" y="45.00000" width="1.00000" height="1.00000"/>
<rect x="25.00000" y="45.00000" width="1.00000" height="1.00000"/>
<rect x="26.00000" y="45.00000" width="1.00000" height="1.00000"/>
<rect x="30.00000" y="45.00000" width="1.00000" height="1.00000"/>
<rect x="34.00000" y="45.00000" width="1.00000" height="1.00000"/>
<rect x="36.00000" y="45.00000" width="1.00000" height="1.00000"/>
<rect x="38.00000" y="45.00000" width="1.00000" height="1.00000"/>
<rect x="42.00000" y="45.00000" width="1.00000" height="1.00000"/>
<rect x="44.00000" y="45.00000" width="1.00000" height="1.00000"/>
<rect x="48.00000" y="45.00000" width="1.00000" height="1.00000"/>
<rect x="51.00000" y="45.00000" width="1.00000" height="1.00000"/>
<rect x="52.00000" y="45.00000" width="1.00000" height="1.00000"/>
<rect x="4.00000" y="46.00000" width="1.00000" height="1.00000"/>
<rect x="5.00000" y="46.00000" width="1.00000" height="1.00000"/>
<rect x="6.00000" y="46.00000" width="1.00000" height="1.00000"/>
<rect x="7.00000" y="46.00000" width="1.00000" height="1.00000"/>
<rect x="8.00000" y="46.00000" width="1.00000" height="1.00000"/>
<rect x="9.00000" y="46.00000" width="1.00000" height="1.00000"/>
<rect x="10.00000" y="46.00000" width="1.00000" height="1.00000"/>
<rect x="13.00000" y="46.00000" width="1.00000" height="1.00000"/>
<rect x="15.00000" y="46.00000" width="1.00000" height="1.00000"/>
<rect x="18.00000" y="46.00000" width="1.00000" height="1.00000"/>
<rect x="19.00000" y="46.00000" width="1.00000" height="1.00000"/>
<rect x="20.00000" y="46.00000" width="1.00000" height="1.00000"/>
<rect x="21.00000" y="46.00000" width="1.00000" height="1.00000"/>
<rect x="23.00000" y="46.00000" width="1.00000" height="1.00000"/>
<rect x="25.00000" y="46.00000" width="1.00000" height="1.00000"/>
<rect x="26.00000" y="46.00000" width="1.00000" height="1.00000"/>
<rect x="28.00000" y="46.00000" width="1.00000" height="1.00000"/>
<rect x="30.00000" y="46.00000" width="1.00000" height="1.00000"/>
<rect x="32.00000" y="46.00000" width="1.00000" height="1.00000"/>
<rect x="33.00000" y="46.00000" width="1.00000" height="1.00000"/>
<rect x="34.00000" y="46.00000" width="1.00000" height="1.00000"/>
<rect x="35.00000" y="46.00000" width="1.00000" height="1.00000"/>
<rect x="38.00000" y="46.00000" width="1.00000" height="1.00000"/>
<rect x="39.00000" y="46.00000" width="1.00000" height="1.00000"/>
<rect x="40.00000" y="46.00000" width="1.00000" height="1.00000"/>
<rect x="42.00000" y="46.00000" width="1.00000" height="1.00000"/>
<rect x="43.00000" y="46.00000" width="1.00000" height="1.00000"/>
<rect x="44.00000" y="46.00000" width="1.00000" height="1.00000"/>
<rect x="46.00000" y="46.00000" width="1.00000" height="1.00000"/>
<rect x="48.00000" y="46.00000" width="1.00000" height="1.00000"/>
<rect x="50.00000" y="46.00000" width="1.00000" height="1.00000"/>
<rect x="51.00000" y="46.00000" width="1.00000" height="1.00000"/>
<rect x="52.00000" y="46.00000" width="1.00000" height="1.00000"/>
<rect x="4.00000" y="47.00000" width="1.00000" height="1.00000"/>
<rect x="10.00000" y="47.00000" width="1.00000" height="1.00000"/>
<rect x="12.00000" y="47.00000" width="1.00000" height="1.00000"/>
<rect x="14.00000" y="47.00000" width="1.00000" height="1.00000"/>
<rect x="17.00000" y="47.00000" width="1.00000" height="1.00000"/>
<rect x="18.00000" y="47.00000" width="1.00000" height="1.00000"/>
<rect x="20.00000" y="47.00000" width="1.00000" height="1.00000"/>
<rect x="21.00000" y="47.00000" width="1.00000" height="1.00000"/>
<rect x="22.00000" y="47.00000" width="1.00000" height="1.00000"/>
<rect x="23.00000" y="47.00000" width="1.00000" height="1.00000"/>
<rect x="25.00000" y="47.00000" width="1.00000" height="1.00000"/>
<rect x="26.00000" y="47.00000" width="1.00000" height="1.00000"/>
<rect x="30.00000" y="47.00000" width="1.00000" height="1.00000"/>
<rect x="31.00000" y="47.00000" width="1.00000" height="1.00000"/>
<rect x="34.00000" y="47.00000" width="1.00000" height="1.00000"/>
<rect x="36.00000" y="47.00000" width="1.00000" height="1.00000"/>
<rect x="38.00000" y="47.00000" width="1.00000" height="1.00000"/>
<rect x="39.00000" y="47.00000" width="1.00000" height="1.00000"/>
<rect x="40.00000" y="47.00000" width="1.00000" height="1.00000"/>
<rect x="42.00000" y="47.00000" width="1.00000" height="1.00000"/>
<rect x="43.00000" y="47.00000" width="1.00000" height="1.00000"/>
<rect x="44.00000" y="47.00000" width="1.00000" height="1.00000"/>
<rect x="48.00000" y="47.00000" width="1.00000" height="1.00000"/>
<rect x="4.00000" y="48.00000" width="1.00000" height="1.00000"/>
<rect x="6.00000" y="48.00000" width="1.00000" height="1.00000"/>
<rect x="7.00000" y="48.00000" width="1.00000" height="1.00000"/>
<rect x="8.00000" y="48.00000" width="1.00000" height="1.00000"/>
<rect x="10.00000" y="48.00000" width="1.00000" height="1.00000"/>
<rect x="12.00000" y="48.00000" width="1.00000" height="1.00000"/>
<rect x="13.00000" y="48.00000" width="1.00000" height="1.00000"/>
<rect x="15.00000" y="48.00000" width="1.00000" height="1.00000"/>
<rect x="16.00000" y="48.00000" width="1.00000" height="1.00000"/>
<rect x="17.00000" y="48.00000" width="1.00000" height="1.00000"/>
<rect x="18.00000" y="48.00000" width="1.00000" height="1.00000"/>
<rect x="24.00000" y="48.00000" width="1.00000" height="1.00000"/>
<rect x="25.00000" y="48.00000" width="1.00000" height="1.00000"/>
<rect x="26.00000" y="48.00000" width="1.00000" height="1.00000"/>
<rect x="27.00000" y="48.00000" width="1.00000" height="1.00000"/>
<rect x="28.00000" y="48.00000" width="1.00000" height="1.00000"/>
<rect x="29.00000" y="48.00000" width="1.00000" height="1.00000"/>
<rect x="30.00000" y="48.00000" width="1.00000" height="1.00000"/>
<rect x="33.00000" y="48.00000" width="1.00000" height="1.00000"/>
<rect x="35.00000" y="48.00000" width="1.00000" height="1.00000"/>
<rect x="36.00000" y="48.00000" width="1.00000" height="1.00000"/>
<rect x="37.00000" y="48.00000" width="1.00000" height="1.00000"/>
<rect x="38.00000" y="48.00000" width="1.00000" height="1.00000"/>
<rect x="39.00000" y="48.00000" width="1.00000" height="1.00000"/>
<rect x="40.00000" y="48.00000" width="1.00000" height="1.00000"/>
<rect x="41.00000" y="48.00000" width="1.00000" height="1.00000"/>
<rect x="44.00000" y="48.00000" width="1.00000" height="1.00000"/>
<rect x="45.00000" y="48.00000" width="1.00000" height="1.00000"/>
<rect x="46.00000" y="48.00000" width="1.00000" height="1.00000"/>
<rect x="47.00000" y="48.00000" width="1.00000" height="1.00000"/>
<rect x="48.00000" y="48.00000" width="1.00000" height="1.00000"/>
<rect x="49.00000" y="48.00000" width="1.00000" height="1.00000"/>
<rect x="51.00000" y="48.00000" width="1.00000" height="1.00000"/>
<rect x="4.00000" y="49.00000" width="1.00000" height="1.00000"/>
<rect x="6.00000" y="49.00000" width="1.00000" height="1.00000"/>
<rect x="7.00000" y="49.00000" width="1.00000" height="1.00000"/>
<rect x="8.00000" y="49.00000" width="1.00000" height="1.00000"/>
<rect x="10.00000" y="49.00000" width="1.00000" height="1.00000"/>
<rect x="14.00000" y="49.00000" width="1.00000" height="1.00000"/>
<rect x="16.00000" y="49.00000" width="1.00000" height="1.00000"/>
<rect x="17.00000" y="49.00000" width="1.00000" height="1.00000"/>
<rect x="18.00000" y="49.00000" width="1.00000" height="1.00000"/>
<rect x="19.00000" y="49.00000" width="1.00000" height="1.00000"/>
<rect x="21.00000" y="49.00000" width="1.00000" height="1.00000"/>
<rect x="22.00000" y="49.00000" width="1.00000" height="1.00000"/>
<rect x="23.00000" y="49.00000" width="1.00000" height="1.00000"/>
<rect x="24.00000" y="49.00000" width="1.00000" height="1.00000"/>
<rect x="30.00000" y="49.00000" width="1.00000" height="1.00000"/>
<rect x="36.00000" y="49.00000" width="1.00000" height="1.00000"/>
<rect x="37.00000" y="49.00000" width="1.00000" height="1.00000"/>
<rect x="40.00000" y="49.00000" width="1.00000" height="1.00000"/>
<rect x="46.00000" y="49.00000" width="1.00000" height="1.00000"/>
<rect x="47.00000" y="49.00000" width="1.00000" height="1.00000"/>
<rect x="51.00000" y="49.00000" width="1.00000" height="1.00000"/>
<rect x="4.00000" y="50.00000" width="1.00000" height="1.00000"/>
<rect x="6.00000" y="50.00000" width="1.00000" height="1.00000"/>
<rect x="7.00000" y="50.00000" width="1.00000" height="1.00000"/>
<rect x="8.00000" y="50.00000" width="1.00000" height="1.00000"/>
<rect x="10.00000" y="50.00000" width="1.00000" height="1.00000"/>
<rect x="12.00000" y="50.00000" width="1.00000" height="1.00000"/>
<rect x="13.00000" y="50.00000" width="1.00000" height="1.00000"/>
<rect x="15.00000" y="50.00000" width="1.00000" height="1.00000"/>
<rect x="20.00000" y="50.00000" width="1.00000" height="1.00000"/>
<rect x="24.00000" y="50.00000" width="1.00000" height="1.00000"/>
<rect x="25.00000" y="50.00000" width="1.00000" height="1.00000"/>
<rect x="26.00000" y="50.00000" width="1.00000" height="1.00000"/>
<rect x="29.00000" y="50.00000" width="1.00000" height="1.00000"/>
<rect x="32.00000" y="50.00000" width="1.00000" height="1.00000"/>
<rect x="36.00000" y="50.00000" width="1.00000" height="1.00000"/>
<rect x="39.00000" y="50.00000" width="1.00000" height="1.00000"/>
<rect x="44.00000" y="50.00000" width="1.00000" height="1.00000"/>
<rect x="46.00000" y="50.00000" width="1.00000" height="1.00000"/>
<rect x="47.00000" y="50.00000" width="1.00000" height="1.00000"/>
<rect x="48.00000" y="50.00000" width="1.00000" height="1.00000"/>
<rect x="50.00000" y="50.00000" width="1.00000" height="1.00000"/>
<rect x="51.00000" y="50.00000" width="1.00000" height="1.00000"/>
<rect x="52.00000" y="50.00000" width="1.00000" height="1.00000"/>
<rect x="4.00000" y="51.00000" width="1.00000" height="1.00000"/>
<rect x="10.00000" y="51.00000" width="1.00000" height="1.00000"/>
<rect x="14.00000" y="51.00000" width="1.00000" height="1.00000"/>
<rect x="15.00000" y="51.00000" width="1.00000" height="1.00000"/>
<rect x="20.00000" y="51.00000" width="1.00000" height="1.00000"/>
<rect x="23.00000" y="51.00000" width="1.00000" height="1.00000"/>
<rect x="26.00000" y="51.00000" width="1.00000" height="1.00000"/>
<rect x="28.00000" y="51.00000" width="1.00000" height="1.00000"/>
<rect x="29.00000" y="51.00000" width="1.00000" height="1.00000"/>
<rect x="30.00000" y="51.00000" width="1.00000" height="1.00000"/>
<rect x="33.00000" y="51.00000" width="1.00000" height="1.00000"/>
<rect x="34.00000" y="51.00000" width="1.00000" height="1.00000"/>
<rect x="35.00000" y="51.00000" width="1.00000" height="1.00000"/>
<rect x="36.00000" y="51.00000" width="1.00000" height="1.00000"/>
<rect x="38.00000" y="51.00000" width="1.00000" height="1.00000"/>
<rect x="39.00000" y="51.00000" width="1.00000" height="1.00000"/>
<rect x="40.00000" y="51.00000" width="1.00000" height="1.00000"/>
<rect x="51.00000" y="51.00000" width="1.00000" height="1.00000"/>
<rect x="4.00000" y="52.00000" width="1.00000" height="1.00000"/>
<rect x="5.00000" y="52.00000" width="1.00000" height="1.00000"/>
<rect x="6.00000" y="52.00000" width="1.00000" height="1.00000"/>
<rect x="7.00000" y="52.00000" width="1.00000" height="1.00000"/>
<rect x="8.00000" y="52.00000" width="1.00000" height="1.00000"/>
<rect x="9.00000" y="52.00000" width="1.00000" height="1.00000"/>
<rect x="10.00000" y="52.00000" width="1.00000" height="1.00000"/>
<rect x="13.00000" y="52.00000" width="1.00000" height="1.00000"/>
<rect x="19.00000" y="52.00000" width="1.00000" height="1.00000"/>
<rect x="20.00000" y="52.00000" width="1.00000" height="1.00000"/>
<rect x="27.00000" y="52.00000" width="1.00000" height="1.00000"/>
<rect x="29.00000" y="52.00000" width="1.00000" height="1.00000"/>
<rect x="31.00000" y="52.00000" width="1.00000" height="1.00000"/>
<rect x="32.00000" y="52.00000" width="1.00000" height="1.00000"/>
<rect x="35.00000" y="52.00000" width="1.00000" height="1.00000"/>
<rect x="36.00000" y="52.00000" width="1.00000" height="1.00000"/>
<rect x="39.00000" y="52.00000" width="1.00000" height="1.00000"/>
<rect x="40.00000" y="52.00000" width="1.00000" height="1.00000"/>
<rect x="42.00000" y="52.00000" width="1.00000" height="1.00000"/>
<rect x="44.00000" y="52.00000" width="1.00000" height="1.00000"/>
<rect x="45.00000" y="52.00000" width="1.00000" height="1.00000"/>
<rect x="46.00000" y="52.00000" width="1.00000" height="1.00000"/>
<rect x="48.00000" y="52.00000" width="1.00000" height="1.00000"/>
<rect x="51.00000" y="52.00000" width="1.00000" height="1.00000"/>
<rect x="52.00000" y="52.00000" width="1.00000" height="1.00000"/>
  </g>
</svg>

