<svg xmlns="http://www.w3.org/2000/svg" width="50mm" height="60mm" viewBox="0 0 50 60" role="img" aria-label="Etiquette QR Code Lucas Werny LW001-ST01">
  <title>Etiquette QR Code Lucas Werny LW001-ST01</title>
  <desc>https://adtm-media.github.io/ADTM-Connect/lucas-werny/?src=LW001-ST01</desc>
  <rect width="50" height="60" fill="#fff"/>
  <text x="25" y="5.4" text-anchor="middle" font-family="Arial, Helvetica, sans-serif" font-size="3.25" font-weight="700" fill="#000">PROJ'EST IMMOBILIER</text>
  <g fill="#000">
<rect x="10.38596" y="12.58596" width="0.59649" height="0.59649"/>
<rect x="10.98246" y="12.58596" width="0.59649" height="0.59649"/>
<rect x="11.57895" y="12.58596" width="0.59649" height="0.59649"/>
<rect x="12.17544" y="12.58596" width="0.59649" height="0.59649"/>
<rect x="12.77193" y="12.58596" width="0.59649" height="0.59649"/>
<rect x="13.36842" y="12.58596" width="0.59649" height="0.59649"/>
<rect x="13.96491" y="12.58596" width="0.59649" height="0.59649"/>
<rect x="15.15789" y="12.58596" width="0.59649" height="0.59649"/>
<rect x="15.75439" y="12.58596" width="0.59649" height="0.59649"/>
<rect x="16.94737" y="12.58596" width="0.59649" height="0.59649"/>
<rect x="17.54386" y="12.58596" width="0.59649" height="0.59649"/>
<rect x="18.73684" y="12.58596" width="0.59649" height="0.59649"/>
<rect x="20.52632" y="12.58596" width="0.59649" height="0.59649"/>
<rect x="24.10526" y="12.58596" width="0.59649" height="0.59649"/>
<rect x="26.49123" y="12.58596" width="0.59649" height="0.59649"/>
<rect x="27.08772" y="12.58596" width="0.59649" height="0.59649"/>
<rect x="27.68421" y="12.58596" width="0.59649" height="0.59649"/>
<rect x="28.28070" y="12.58596" width="0.59649" height="0.59649"/>
<rect x="29.47368" y="12.58596" width="0.59649" height="0.59649"/>
<rect x="30.07018" y="12.58596" width="0.59649" height="0.59649"/>
<rect x="30.66667" y="12.58596" width="0.59649" height="0.59649"/>
<rect x="31.26316" y="12.58596" width="0.59649" height="0.59649"/>
<rect x="31.85965" y="12.58596" width="0.59649" height="0.59649"/>
<rect x="34.24561" y="12.58596" width="0.59649" height="0.59649"/>
<rect x="35.43860" y="12.58596" width="0.59649" height="0.59649"/>
<rect x="36.03509" y="12.58596" width="0.59649" height="0.59649"/>
<rect x="36.63158" y="12.58596" width="0.59649" height="0.59649"/>
<rect x="37.22807" y="12.58596" width="0.59649" height="0.59649"/>
<rect x="37.82456" y="12.58596" width="0.59649" height="0.59649"/>
<rect x="38.42105" y="12.58596" width="0.59649" height="0.59649"/>
<rect x="39.01754" y="12.58596" width="0.59649" height="0.59649"/>
<rect x="10.38596" y="13.18246" width="0.59649" height="0.59649"/>
<rect x="13.96491" y="13.18246" width="0.59649" height="0.59649"/>
<rect x="15.75439" y="13.18246" width="0.59649" height="0.59649"/>
<rect x="16.35088" y="13.18246" width="0.59649" height="0.59649"/>
<rect x="17.54386" y="13.18246" width="0.59649" height="0.59649"/>
<rect x="18.14035" y="13.18246" width="0.59649" height="0.59649"/>
<rect x="18.73684" y="13.18246" width="0.59649" height="0.59649"/>
<rect x="19.33333" y="13.18246" width="0.59649" height="0.59649"/>
<rect x="19.92982" y="13.18246" width="0.59649" height="0.59649"/>
<rect x="20.52632" y="13.18246" width="0.59649" height="0.59649"/>
<rect x="21.12281" y="13.18246" width="0.59649" height="0.59649"/>
<rect x="21.71930" y="13.18246" width="0.59649" height="0.59649"/>
<rect x="23.50877" y="13.18246" width="0.59649" height="0.59649"/>
<rect x="24.10526" y="13.18246" width="0.59649" height="0.59649"/>
<rect x="24.70175" y="13.18246" width="0.59649" height="0.59649"/>
<rect x="27.08772" y="13.18246" width="0.59649" height="0.59649"/>
<rect x="27.68421" y="13.18246" width="0.59649" height="0.59649"/>
<rect x="30.07018" y="13.18246" width="0.59649" height="0.59649"/>
<rect x="30.66667" y="13.18246" width="0.59649" height="0.59649"/>
<rect x="33.05263" y="13.18246" width="0.59649" height="0.59649"/>
<rect x="33.64912" y="13.18246" width="0.59649" height="0.59649"/>
<rect x="34.24561" y="13.18246" width="0.59649" height="0.59649"/>
<rect x="35.43860" y="13.18246" width="0.59649" height="0.59649"/>
<rect x="39.01754" y="13.18246" width="0.59649" height="0.59649"/>
<rect x="10.38596" y="13.77895" width="0.59649" height="0.59649"/>
<rect x="11.57895" y="13.77895" width="0.59649" height="0.59649"/>
<rect x="12.17544" y="13.77895" width="0.59649" height="0.59649"/>
<rect x="12.77193" y="13.77895" width="0.59649" height="0.59649"/>
<rect x="13.96491" y="13.77895" width="0.59649" height="0.59649"/>
<rect x="15.75439" y="13.77895" width="0.59649" height="0.59649"/>
<rect x="18.14035" y="13.77895" width="0.59649" height="0.59649"/>
<rect x="18.73684" y="13.77895" width="0.59649" height="0.59649"/>
<rect x="19.33333" y="13.77895" width="0.59649" height="0.59649"/>
<rect x="19.92982" y="13.77895" width="0.59649" height="0.59649"/>
<rect x="21.12281" y="13.77895" width="0.59649" height="0.59649"/>
<rect x="21.71930" y="13.77895" width="0.59649" height="0.59649"/>
<rect x="22.31579" y="13.77895" width="0.59649" height="0.59649"/>
<rect x="23.50877" y="13.77895" width="0.59649" height="0.59649"/>
<rect x="24.70175" y="13.77895" width="0.59649" height="0.59649"/>
<rect x="26.49123" y="13.77895" width="0.59649" height="0.59649"/>
<rect x="27.68421" y="13.77895" width="0.59649" height="0.59649"/>
<rect x="29.47368" y="13.77895" width="0.59649" height="0.59649"/>
<rect x="30.07018" y="13.77895" width="0.59649" height="0.59649"/>
<rect x="31.26316" y="13.77895" width="0.59649" height="0.59649"/>
<rect x="33.64912" y="13.77895" width="0.59649" height="0.59649"/>
<rect x="34.24561" y="13.77895" width="0.59649" height="0.59649"/>
<rect x="35.43860" y="13.77895" width="0.59649" height="0.59649"/>
<rect x="36.63158" y="13.77895" width="0.59649" height="0.59649"/>
<rect x="37.22807" y="13.77895" width="0.59649" height="0.59649"/>
<rect x="37.82456" y="13.77895" width="0.59649" height="0.59649"/>
<rect x="39.01754" y="13.77895" width="0.59649" height="0.59649"/>
<rect x="10.38596" y="14.37544" width="0.59649" height="0.59649"/>
<rect x="11.57895" y="14.37544" width="0.59649" height="0.59649"/>
<rect x="12.17544" y="14.37544" width="0.59649" height="0.59649"/>
<rect x="12.77193" y="14.37544" width="0.59649" height="0.59649"/>
<rect x="13.96491" y="14.37544" width="0.59649" height="0.59649"/>
<rect x="15.15789" y="14.37544" width="0.59649" height="0.59649"/>
<rect x="16.94737" y="14.37544" width="0.59649" height="0.59649"/>
<rect x="18.14035" y="14.37544" width="0.59649" height="0.59649"/>
<rect x="18.73684" y="14.37544" width="0.59649" height="0.59649"/>
<rect x="19.33333" y="14.37544" width="0.59649" height="0.59649"/>
<rect x="21.12281" y="14.37544" width="0.59649" height="0.59649"/>
<rect x="22.91228" y="14.37544" width="0.59649" height="0.59649"/>
<rect x="23.50877" y="14.37544" width="0.59649" height="0.59649"/>
<rect x="24.70175" y="14.37544" width="0.59649" height="0.59649"/>
<rect x="26.49123" y="14.37544" width="0.59649" height="0.59649"/>
<rect x="27.08772" y="14.37544" width="0.59649" height="0.59649"/>
<rect x="28.28070" y="14.37544" width="0.59649" height="0.59649"/>
<rect x="28.87719" y="14.37544" width="0.59649" height="0.59649"/>
<rect x="29.47368" y="14.37544" width="0.59649" height="0.59649"/>
<rect x="30.07018" y="14.37544" width="0.59649" height="0.59649"/>
<rect x="30.66667" y="14.37544" width="0.59649" height="0.59649"/>
<rect x="33.64912" y="14.37544" width="0.59649" height="0.59649"/>
<rect x="35.43860" y="14.37544" width="0.59649" height="0.59649"/>
<rect x="36.63158" y="14.37544" width="0.59649" height="0.59649"/>
<rect x="37.22807" y="14.37544" width="0.59649" height="0.59649"/>
<rect x="37.82456" y="14.37544" width="0.59649" height="0.59649"/>
<rect x="39.01754" y="14.37544" width="0.59649" height="0.59649"/>
<rect x="10.38596" y="14.97193" width="0.59649" height="0.59649"/>
<rect x="11.57895" y="14.97193" width="0.59649" height="0.59649"/>
<rect x="12.17544" y="14.97193" width="0.59649" height="0.59649"/>
<rect x="12.77193" y="14.97193" width="0.59649" height="0.59649"/>
<rect x="13.96491" y="14.97193" width="0.59649" height="0.59649"/>
<rect x="15.75439" y="14.97193" width="0.59649" height="0.59649"/>
<rect x="16.35088" y="14.97193" width="0.59649" height="0.59649"/>
<rect x="16.94737" y="14.97193" width="0.59649" height="0.59649"/>
<rect x="18.73684" y="14.97193" width="0.59649" height="0.59649"/>
<rect x="19.33333" y="14.97193" width="0.59649" height="0.59649"/>
<rect x="20.52632" y="14.97193" width="0.59649" height="0.59649"/>
<rect x="21.12281" y="14.97193" width="0.59649" height="0.59649"/>
<rect x="21.71930" y="14.97193" width="0.59649" height="0.59649"/>
<rect x="22.31579" y="14.97193" width="0.59649" height="0.59649"/>
<rect x="23.50877" y="14.97193" width="0.59649" height="0.59649"/>
<rect x="24.10526" y="14.97193" width="0.59649" height="0.59649"/>
<rect x="24.70175" y="14.97193" width="0.59649" height="0.59649"/>
<rect x="25.29825" y="14.97193" width="0.59649" height="0.59649"/>
<rect x="25.89474" y="14.97193" width="0.59649" height="0.59649"/>
<rect x="27.08772" y="14.97193" width="0.59649" height="0.59649"/>
<rect x="28.28070" y="14.97193" width="0.59649" height="0.59649"/>
<rect x="28.87719" y="14.97193" width="0.59649" height="0.59649"/>
<rect x="29.47368" y="14.97193" width="0.59649" height="0.59649"/>
<rect x="30.07018" y="14.97193" width="0.59649" height="0.59649"/>
<rect x="30.66667" y="14.97193" width="0.59649" height="0.59649"/>
<rect x="31.85965" y="14.97193" width="0.59649" height="0.59649"/>
<rect x="35.43860" y="14.97193" width="0.59649" height="0.59649"/>
<rect x="36.63158" y="14.97193" width="0.59649" height="0.59649"/>
<rect x="37.22807" y="14.97193" width="0.59649" height="0.59649"/>
<rect x="37.82456" y="14.97193" width="0.59649" height="0.59649"/>
<rect x="39.01754" y="14.97193" width="0.59649" height="0.59649"/>
<rect x="10.38596" y="15.56842" width="0.59649" height="0.59649"/>
<rect x="13.96491" y="15.56842" width="0.59649" height="0.59649"/>
<rect x="16.94737" y="15.56842" width="0.59649" height="0.59649"/>
<rect x="17.54386" y="15.56842" width="0.59649" height="0.59649"/>
<rect x="18.73684" y="15.56842" width="0.59649" height="0.59649"/>
<rect x="19.33333" y="15.56842" width="0.59649" height="0.59649"/>
<rect x="20.52632" y="15.56842" width="0.59649" height="0.59649"/>
<rect x="21.12281" y="15.56842" width="0.59649" height="0.59649"/>
<rect x="22.91228" y="15.56842" width="0.59649" height="0.59649"/>
<rect x="23.50877" y="15.56842" width="0.59649" height="0.59649"/>
<rect x="25.89474" y="15.56842" width="0.59649" height="0.59649"/>
<rect x="26.49123" y="15.56842" width="0.59649" height="0.59649"/>
<rect x="28.87719" y="15.56842" width="0.59649" height="0.59649"/>
<rect x="30.07018" y="15.56842" width="0.59649" height="0.59649"/>
<rect x="30.66667" y="15.56842" width="0.59649" height="0.59649"/>
<rect x="32.45614" y="15.56842" width="0.59649" height="0.59649"/>
<rect x="33.05263" y="15.56842" width="0.59649" height="0.59649"/>
<rect x="35.43860" y="15.56842" width="0.59649" height="0.59649"/>
<rect x="39.01754" y="15.56842" width="0.59649" height="0.59649"/>
<rect x="10.38596" y="16.16491" width="0.59649" height="0.59649"/>
<rect x="10.98246" y="16.16491" width="0.59649" height="0.59649"/>
<rect x="11.57895" y="16.16491" width="0.59649" height="0.59649"/>
<rect x="12.17544" y="16.16491" width="0.59649" height="0.59649"/>
<rect x="12.77193" y="16.16491" width="0.59649" height="0.59649"/>
<rect x="13.36842" y="16.16491" width="0.59649" height="0.59649"/>
<rect x="13.96491" y="16.16491" width="0.59649" height="0.59649"/>
<rect x="15.15789" y="16.16491" width="0.59649" height="0.59649"/>
<rect x="16.35088" y="16.16491" width="0.59649" height="0.59649"/>
<rect x="17.54386" y="16.16491" width="0.59649" height="0.59649"/>
<rect x="18.73684" y="16.16491" width="0.59649" height="0.59649"/>
<rect x="19.92982" y="16.16491" width="0.59649" height="0.59649"/>
<rect x="21.12281" y="16.16491" width="0.59649" height="0.59649"/>
<rect x="22.31579" y="16.16491" width="0.59649" height="0.59649"/>
<rect x="23.50877" y="16.16491" width="0.59649" height="0.59649"/>
<rect x="24.70175" y="16.16491" width="0.59649" height="0.59649"/>
<rect x="25.89474" y="16.16491" width="0.59649" height="0.59649"/>
<rect x="27.08772" y="16.16491" width="0.59649" height="0.59649"/>
<rect x="28.28070" y="16.16491" width="0.59649" height="0.59649"/>
<rect x="29.47368" y="16.16491" width="0.59649" height="0.59649"/>
<rect x="30.66667" y="16.16491" width="0.59649" height="0.59649"/>
<rect x="31.85965" y="16.16491" width="0.59649" height="0.59649"/>
<rect x="33.05263" y="16.16491" width="0.59649" height="0.59649"/>
<rect x="34.24561" y="16.16491" width="0.59649" height="0.59649"/>
<rect x="35.43860" y="16.16491" width="0.59649" height="0.59649"/>
<rect x="36.03509" y="16.16491" width="0.59649" height="0.59649"/>
<rect x="36.63158" y="16.16491" width="0.59649" height="0.59649"/>
<rect x="37.22807" y="16.16491" width="0.59649" height="0.59649"/>
<rect x="37.82456" y="16.16491" width="0.59649" height="0.59649"/>
<rect x="38.42105" y="16.16491" width="0.59649" height="0.59649"/>
<rect x="39.01754" y="16.16491" width="0.59649" height="0.59649"/>
<rect x="15.75439" y="16.76140" width="0.59649" height="0.59649"/>
<rect x="18.14035" y="16.76140" width="0.59649" height="0.59649"/>
<rect x="21.12281" y="16.76140" width="0.59649" height="0.59649"/>
<rect x="21.71930" y="16.76140" width="0.59649" height="0.59649"/>
<rect x="22.31579" y="16.76140" width="0.59649" height="0.59649"/>
<rect x="23.50877" y="16.76140" width="0.59649" height="0.59649"/>
<rect x="25.89474" y="16.76140" width="0.59649" height="0.59649"/>
<rect x="27.68421" y="16.76140" width="0.59649" height="0.59649"/>
<rect x="28.28070" y="16.76140" width="0.59649" height="0.59649"/>
<rect x="28.87719" y="16.76140" width="0.59649" height="0.59649"/>
<rect x="29.47368" y="16.76140" width="0.59649" height="0.59649"/>
<rect x="30.66667" y="16.76140" width="0.59649" height="0.59649"/>
<rect x="31.26316" y="16.76140" width="0.59649" height="0.59649"/>
<rect x="33.05263" y="16.76140" width="0.59649" height="0.59649"/>
<rect x="34.24561" y="16.76140" width="0.59649" height="0.59649"/>
<rect x="11.57895" y="17.35789" width="0.59649" height="0.59649"/>
<rect x="12.77193" y="17.35789" width="0.59649" height="0.59649"/>
<rect x="13.36842" y="17.35789" width="0.59649" height="0.59649"/>
<rect x="13.96491" y="17.35789" width="0.59649" height="0.59649"/>
<rect x="15.15789" y="17.35789" width="0.59649" height="0.59649"/>
<rect x="16.35088" y="17.35789" width="0.59649" height="0.59649"/>
<rect x="16.94737" y="17.35789" width="0.59649" height="0.59649"/>
<rect x="17.54386" y="17.35789" width="0.59649" height="0.59649"/>
<rect x="18.14035" y="17.35789" width="0.59649" height="0.59649"/>
<rect x="18.73684" y="17.35789" width="0.59649" height="0.59649"/>
<rect x="19.33333" y="17.35789" width="0.59649" height="0.59649"/>
<rect x="21.12281" y="17.35789" width="0.59649" height="0.59649"/>
<rect x="22.31579" y="17.35789" width="0.59649" height="0.59649"/>
<rect x="22.91228" y="17.35789" width="0.59649" height="0.59649"/>
<rect x="23.50877" y="17.35789" width="0.59649" height="0.59649"/>
<rect x="24.10526" y="17.35789" width="0.59649" height="0.59649"/>
<rect x="24.70175" y="17.35789" width="0.59649" height="0.59649"/>
<rect x="25.29825" y="17.35789" width="0.59649" height="0.59649"/>
<rect x="25.89474" y="17.35789" width="0.59649" height="0.59649"/>
<rect x="26.49123" y="17.35789" width="0.59649" height="0.59649"/>
<rect x="27.08772" y="17.35789" width="0.59649" height="0.59649"/>
<rect x="28.28070" y="17.35789" width="0.59649" height="0.59649"/>
<rect x="29.47368" y="17.35789" width="0.59649" height="0.59649"/>
<rect x="31.26316" y="17.35789" width="0.59649" height="0.59649"/>
<rect x="32.45614" y="17.35789" width="0.59649" height="0.59649"/>
<rect x="33.05263" y="17.35789" width="0.59649" height="0.59649"/>
<rect x="34.84211" y="17.35789" width="0.59649" height="0.59649"/>
<rect x="37.22807" y="17.35789" width="0.59649" height="0.59649"/>
<rect x="39.01754" y="17.35789" width="0.59649" height="0.59649"/>
<rect x="10.38596" y="17.95439" width="0.59649" height="0.59649"/>
<rect x="11.57895" y="17.95439" width="0.59649" height="0.59649"/>
<rect x="12.17544" y="17.95439" width="0.59649" height="0.59649"/>
<rect x="12.77193" y="17.95439" width="0.59649" height="0.59649"/>
<rect x="13.36842" y="17.95439" width="0.59649" height="0.59649"/>
<rect x="15.75439" y="17.95439" width="0.59649" height="0.59649"/>
<rect x="16.35088" y="17.95439" width="0.59649" height="0.59649"/>
<rect x="16.94737" y="17.95439" width="0.59649" height="0.59649"/>
<rect x="18.73684" y="17.95439" width="0.59649" height="0.59649"/>
<rect x="19.33333" y="17.95439" width="0.59649" height="0.59649"/>
<rect x="20.52632" y="17.95439" width="0.59649" height="0.59649"/>
<rect x="22.91228" y="17.95439" width="0.59649" height="0.59649"/>
<rect x="23.50877" y="17.95439" width="0.59649" height="0.59649"/>
<rect x="24.10526" y="17.95439" width="0.59649" height="0.59649"/>
<rect x="25.29825" y="17.95439" width="0.59649" height="0.59649"/>
<rect x="25.89474" y="17.95439" width="0.59649" height="0.59649"/>
<rect x="26.49123" y="17.95439" width="0.59649" height="0.59649"/>
<rect x="27.08772" y="17.95439" width="0.59649" height="0.59649"/>
<rect x="28.28070" y="17.95439" width="0.59649" height="0.59649"/>
<rect x="28.87719" y="17.95439" width="0.59649" height="0.59649"/>
<rect x="31.26316" y="17.95439" width="0.59649" height="0.59649"/>
<rect x="31.85965" y="17.95439" width="0.59649" height="0.59649"/>
<rect x="36.63158" y="17.95439" width="0.59649" height="0.59649"/>
<rect x="37.22807" y="17.95439" width="0.59649" height="0.59649"/>
<rect x="38.42105" y="17.95439" width="0.59649" height="0.59649"/>
<rect x="39.01754" y="17.95439" width="0.59649" height="0.59649"/>
<rect x="11.57895" y="18.55088" width="0.59649" height="0.59649"/>
<rect x="12.17544" y="18.55088" width="0.59649" height="0.59649"/>
<rect x="13.36842" y="18.55088" width="0.59649" height="0.59649"/>
<rect x="13.96491" y="18.55088" width="0.59649" height="0.59649"/>
<rect x="14.56140" y="18.55088" width="0.59649" height="0.59649"/>
<rect x="15.15789" y="18.55088" width="0.59649" height="0.59649"/>
<rect x="16.35088" y="18.55088" width="0.59649" height="0.59649"/>
<rect x="16.94737" y="18.55088" width="0.59649" height="0.59649"/>
<rect x="21.71930" y="18.55088" width="0.59649" height="0.59649"/>
<rect x="24.70175" y="18.55088" width="0.59649" height="0.59649"/>
<rect x="25.89474" y="18.55088" width="0.59649" height="0.59649"/>
<rect x="28.87719" y="18.55088" width="0.59649" height="0.59649"/>
<rect x="30.07018" y="18.55088" width="0.59649" height="0.59649"/>
<rect x="31.26316" y="18.55088" width="0.59649" height="0.59649"/>
<rect x="32.45614" y="18.55088" width="0.59649" height="0.59649"/>
<rect x="33.64912" y="18.55088" width="0.59649" height="0.59649"/>
<rect x="36.63158" y="18.55088" width="0.59649" height="0.59649"/>
<rect x="37.22807" y="18.55088" width="0.59649" height="0.59649"/>
<rect x="38.42105" y="18.55088" width="0.59649" height="0.59649"/>
<rect x="39.01754" y="18.55088" width="0.59649" height="0.59649"/>
<rect x="12.17544" y="19.14737" width="0.59649" height="0.59649"/>
<rect x="12.77193" y="19.14737" width="0.59649" height="0.59649"/>
<rect x="14.56140" y="19.14737" width="0.59649" height="0.59649"/>
<rect x="15.15789" y="19.14737" width="0.59649" height="0.59649"/>
<rect x="16.94737" y="19.14737" width="0.59649" height="0.59649"/>
<rect x="18.73684" y="19.14737" width="0.59649" height="0.59649"/>
<rect x="19.92982" y="19.14737" width="0.59649" height="0.59649"/>
<rect x="20.52632" y="19.14737" width="0.59649" height="0.59649"/>
<rect x="21.71930" y="19.14737" width="0.59649" height="0.59649"/>
<rect x="22.91228" y="19.14737" width="0.59649" height="0.59649"/>
<rect x="23.50877" y="19.14737" width="0.59649" height="0.59649"/>
<rect x="24.10526" y="19.14737" width="0.59649" height="0.59649"/>
<rect x="24.70175" y="19.14737" width="0.59649" height="0.59649"/>
<rect x="27.68421" y="19.14737" width="0.59649" height="0.59649"/>
<rect x="28.28070" y="19.14737" width="0.59649" height="0.59649"/>
<rect x="28.87719" y="19.14737" width="0.59649" height="0.59649"/>
<rect x="30.07018" y="19.14737" width="0.59649" height="0.59649"/>
<rect x="32.45614" y="19.14737" width="0.59649" height="0.59649"/>
<rect x="35.43860" y="19.14737" width="0.59649" height="0.59649"/>
<rect x="39.01754" y="19.14737" width="0.59649" height="0.59649"/>
<rect x="10.38596" y="19.74386" width="0.59649" height="0.59649"/>
<rect x="10.98246" y="19.74386" width="0.59649" height="0.59649"/>
<rect x="11.57895" y="19.74386" width="0.59649" height="0.59649"/>
<rect x="13.36842" y="19.74386" width="0.59649" height="0.59649"/>
<rect x="13.96491" y="19.74386" width="0.59649" height="0.59649"/>
<rect x="15.15789" y="19.74386" width="0.59649" height="0.59649"/>
<rect x="16.35088" y="19.74386" width="0.59649" height="0.59649"/>
<rect x="17.54386" y="19.74386" width="0.59649" height="0.59649"/>
<rect x="18.14035" y="19.74386" width="0.59649" height="0.59649"/>
<rect x="19.33333" y="19.74386" width="0.59649" height="0.59649"/>
<rect x="19.92982" y="19.74386" width="0.59649" height="0.59649"/>
<rect x="21.12281" y="19.74386" width="0.59649" height="0.59649"/>
<rect x="22.91228" y="19.74386" width="0.59649" height="0.59649"/>
<rect x="24.10526" y="19.74386" width="0.59649" height="0.59649"/>
<rect x="25.29825" y="19.74386" width="0.59649" height="0.59649"/>
<rect x="27.08772" y="19.74386" width="0.59649" height="0.59649"/>
<rect x="27.68421" y="19.74386" width="0.59649" height="0.59649"/>
<rect x="29.47368" y="19.74386" width="0.59649" height="0.59649"/>
<rect x="30.07018" y="19.74386" width="0.59649" height="0.59649"/>
<rect x="31.26316" y="19.74386" width="0.59649" height="0.59649"/>
<rect x="31.85965" y="19.74386" width="0.59649" height="0.59649"/>
<rect x="33.05263" y="19.74386" width="0.59649" height="0.59649"/>
<rect x="34.84211" y="19.74386" width="0.59649" height="0.59649"/>
<rect x="35.43860" y="19.74386" width="0.59649" height="0.59649"/>
<rect x="36.03509" y="19.74386" width="0.59649" height="0.59649"/>
<rect x="36.63158" y="19.74386" width="0.59649" height="0.59649"/>
<rect x="37.22807" y="19.74386" width="0.59649" height="0.59649"/>
<rect x="38.42105" y="19.74386" width="0.59649" height="0.59649"/>
<rect x="10.98246" y="20.34035" width="0.59649" height="0.59649"/>
<rect x="11.57895" y="20.34035" width="0.59649" height="0.59649"/>
<rect x="12.17544" y="20.34035" width="0.59649" height="0.59649"/>
<rect x="13.36842" y="20.34035" width="0.59649" height="0.59649"/>
<rect x="15.15789" y="20.34035" width="0.59649" height="0.59649"/>
<rect x="16.35088" y="20.34035" width="0.59649" height="0.59649"/>
<rect x="16.94737" y="20.34035" width="0.59649" height="0.59649"/>
<rect x="17.54386" y="20.34035" width="0.59649" height="0.59649"/>
<rect x="19.92982" y="20.34035" width="0.59649" height="0.59649"/>
<rect x="20.52632" y="20.34035" width="0.59649" height="0.59649"/>
<rect x="21.71930" y="20.34035" width="0.59649" height="0.59649"/>
<rect x="22.91228" y="20.34035" width="0.59649" height="0.59649"/>
<rect x="23.50877" y="20.34035" width="0.59649" height="0.59649"/>
<rect x="24.70175" y="20.34035" width="0.59649" height="0.59649"/>
<rect x="26.49123" y="20.34035" width="0.59649" height="0.59649"/>
<rect x="27.08772" y="20.34035" width="0.59649" height="0.59649"/>
<rect x="28.28070" y="20.34035" width="0.59649" height="0.59649"/>
<rect x="29.47368" y="20.34035" width="0.59649" height="0.59649"/>
<rect x="32.45614" y="20.34035" width="0.59649" height="0.59649"/>
<rect x="33.64912" y="20.34035" width="0.59649" height="0.59649"/>
<rect x="36.03509" y="20.34035" width="0.59649" height="0.59649"/>
<rect x="37.22807" y="20.34035" width="0.59649" height="0.59649"/>
<rect x="38.42105" y="20.34035" width="0.59649" height="0.59649"/>
<rect x="39.01754" y="20.34035" width="0.59649" height="0.59649"/>
<rect x="10.38596" y="20.93684" width="0.59649" height="0.59649"/>
<rect x="12.17544" y="20.93684" width="0.59649" height="0.59649"/>
<rect x="12.77193" y="20.93684" width="0.59649" height="0.59649"/>
<rect x="13.36842" y="20.93684" width="0.59649" height="0.59649"/>
<rect x="13.96491" y="20.93684" width="0.59649" height="0.59649"/>
<rect x="15.15789" y="20.93684" width="0.59649" height="0.59649"/>
<rect x="17.54386" y="20.93684" width="0.59649" height="0.59649"/>
<rect x="19.33333" y="20.93684" width="0.59649" height="0.59649"/>
<rect x="19.92982" y="20.93684" width="0.59649" height="0.59649"/>
<rect x="22.91228" y="20.93684" width="0.59649" height="0.59649"/>
<rect x="23.50877" y="20.93684" width="0.59649" height="0.59649"/>
<rect x="24.10526" y="20.93684" width="0.59649" height="0.59649"/>
<rect x="25.89474" y="20.93684" width="0.59649" height="0.59649"/>
<rect x="27.08772" y="20.93684" width="0.59649" height="0.59649"/>
<rect x="27.68421" y="20.93684" width="0.59649" height="0.59649"/>
<rect x="28.28070" y="20.93684" width="0.59649" height="0.59649"/>
<rect x="29.47368" y="20.93684" width="0.59649" height="0.59649"/>
<rect x="30.07018" y="20.93684" width="0.59649" height="0.59649"/>
<rect x="30.66667" y="20.93684" width="0.59649" height="0.59649"/>
<rect x="31.26316" y="20.93684" width="0.59649" height="0.59649"/>
<rect x="32.45614" y="20.93684" width="0.59649" height="0.59649"/>
<rect x="35.43860" y="20.93684" width="0.59649" height="0.59649"/>
<rect x="36.03509" y="20.93684" width="0.59649" height="0.59649"/>
<rect x="36.63158" y="20.93684" width="0.59649" height="0.59649"/>
<rect x="37.22807" y="20.93684" width="0.59649" height="0.59649"/>
<rect x="37.82456" y="20.93684" width="0.59649" height="0.59649"/>
<rect x="39.01754" y="20.93684" width="0.59649" height="0.59649"/>
<rect x="10.98246" y="21.53333" width="0.59649" height="0.59649"/>
<rect x="11.57895" y="21.53333" width="0.59649" height="0.59649"/>
<rect x="12.17544" y="21.53333" width="0.59649" height="0.59649"/>
<rect x="12.77193" y="21.53333" width="0.59649" height="0.59649"/>
<rect x="13.36842" y="21.53333" width="0.59649" height="0.59649"/>
<rect x="14.56140" y="21.53333" width="0.59649" height="0.59649"/>
<rect x="15.15789" y="21.53333" width="0.59649" height="0.59649"/>
<rect x="16.35088" y="21.53333" width="0.59649" height="0.59649"/>
<rect x="16.94737" y="21.53333" width="0.59649" height="0.59649"/>
<rect x="17.54386" y="21.53333" width="0.59649" height="0.59649"/>
<rect x="18.14035" y="21.53333" width="0.59649" height="0.59649"/>
<rect x="20.52632" y="21.53333" width="0.59649" height="0.59649"/>
<rect x="21.12281" y="21.53333" width="0.59649" height="0.59649"/>
<rect x="22.31579" y="21.53333" width="0.59649" height="0.59649"/>
<rect x="24.10526" y="21.53333" width="0.59649" height="0.59649"/>
<rect x="26.49123" y="21.53333" width="0.59649" height="0.59649"/>
<rect x="27.08772" y="21.53333" width="0.59649" height="0.59649"/>
<rect x="28.28070" y="21.53333" width="0.59649" height="0.59649"/>
<rect x="28.87719" y="21.53333" width="0.59649" height="0.59649"/>
<rect x="29.47368" y="21.53333" width="0.59649" height="0.59649"/>
<rect x="30.07018" y="21.53333" width="0.59649" height="0.59649"/>
<rect x="31.26316" y="21.53333" width="0.59649" height="0.59649"/>
<rect x="31.85965" y="21.53333" width="0.59649" height="0.59649"/>
<rect x="32.45614" y="21.53333" width="0.59649" height="0.59649"/>
<rect x="33.64912" y="21.53333" width="0.59649" height="0.59649"/>
<rect x="34.24561" y="21.53333" width="0.59649" height="0.59649"/>
<rect x="35.43860" y="21.53333" width="0.59649" height="0.59649"/>
<rect x="36.03509" y="21.53333" width="0.59649" height="0.59649"/>
<rect x="36.63158" y="21.53333" width="0.59649" height="0.59649"/>
<rect x="37.22807" y="21.53333" width="0.59649" height="0.59649"/>
<rect x="39.01754" y="21.53333" width="0.59649" height="0.59649"/>
<rect x="10.98246" y="22.12982" width="0.59649" height="0.59649"/>
<rect x="11.57895" y="22.12982" width="0.59649" height="0.59649"/>
<rect x="12.17544" y="22.12982" width="0.59649" height="0.59649"/>
<rect x="12.77193" y="22.12982" width="0.59649" height="0.59649"/>
<rect x="13.36842" y="22.12982" width="0.59649" height="0.59649"/>
<rect x="13.96491" y="22.12982" width="0.59649" height="0.59649"/>
<rect x="14.56140" y="22.12982" width="0.59649" height="0.59649"/>
<rect x="15.15789" y="22.12982" width="0.59649" height="0.59649"/>
<rect x="16.94737" y="22.12982" width="0.59649" height="0.59649"/>
<rect x="19.92982" y="22.12982" width="0.59649" height="0.59649"/>
<rect x="21.71930" y="22.12982" width="0.59649" height="0.59649"/>
<rect x="22.31579" y="22.12982" width="0.59649" height="0.59649"/>
<rect x="22.91228" y="22.12982" width="0.59649" height="0.59649"/>
<rect x="26.49123" y="22.12982" width="0.59649" height="0.59649"/>
<rect x="27.08772" y="22.12982" width="0.59649" height="0.59649"/>
<rect x="29.47368" y="22.12982" width="0.59649" height="0.59649"/>
<rect x="30.07018" y="22.12982" width="0.59649" height="0.59649"/>
<rect x="30.66667" y="22.12982" width="0.59649" height="0.59649"/>
<rect x="31.26316" y="22.12982" width="0.59649" height="0.59649"/>
<rect x="31.85965" y="22.12982" width="0.59649" height="0.59649"/>
<rect x="32.45614" y="22.12982" width="0.59649" height="0.59649"/>
<rect x="33.05263" y="22.12982" width="0.59649" height="0.59649"/>
<rect x="34.24561" y="22.12982" width="0.59649" height="0.59649"/>
<rect x="36.03509" y="22.12982" width="0.59649" height="0.59649"/>
<rect x="36.63158" y="22.12982" width="0.59649" height="0.59649"/>
<rect x="37.22807" y="22.12982" width="0.59649" height="0.59649"/>
<rect x="37.82456" y="22.12982" width="0.59649" height="0.59649"/>
<rect x="38.42105" y="22.12982" width="0.59649" height="0.59649"/>
<rect x="11.57895" y="22.72632" width="0.59649" height="0.59649"/>
<rect x="13.36842" y="22.72632" width="0.59649" height="0.59649"/>
<rect x="15.15789" y="22.72632" width="0.59649" height="0.59649"/>
<rect x="15.75439" y="22.72632" width="0.59649" height="0.59649"/>
<rect x="16.94737" y="22.72632" width="0.59649" height="0.59649"/>
<rect x="17.54386" y="22.72632" width="0.59649" height="0.59649"/>
<rect x="18.73684" y="22.72632" width="0.59649" height="0.59649"/>
<rect x="20.52632" y="22.72632" width="0.59649" height="0.59649"/>
<rect x="22.31579" y="22.72632" width="0.59649" height="0.59649"/>
<rect x="24.10526" y="22.72632" width="0.59649" height="0.59649"/>
<rect x="24.70175" y="22.72632" width="0.59649" height="0.59649"/>
<rect x="25.29825" y="22.72632" width="0.59649" height="0.59649"/>
<rect x="26.49123" y="22.72632" width="0.59649" height="0.59649"/>
<rect x="27.08772" y="22.72632" width="0.59649" height="0.59649"/>
<rect x="30.07018" y="22.72632" width="0.59649" height="0.59649"/>
<rect x="31.26316" y="22.72632" width="0.59649" height="0.59649"/>
<rect x="31.85965" y="22.72632" width="0.59649" height="0.59649"/>
<rect x="32.45614" y="22.72632" width="0.59649" height="0.59649"/>
<rect x="34.24561" y="22.72632" width="0.59649" height="0.59649"/>
<rect x="35.43860" y="22.72632" width="0.59649" height="0.59649"/>
<rect x="37.22807" y="22.72632" width="0.59649" height="0.59649"/>
<rect x="37.82456" y="22.72632" width="0.59649" height="0.59649"/>
<rect x="38.42105" y="22.72632" width="0.59649" height="0.59649"/>
<rect x="39.01754" y="22.72632" width="0.59649" height="0.59649"/>
<rect x="10.38596" y="23.32281" width="0.59649" height="0.59649"/>
<rect x="12.17544" y="23.32281" width="0.59649" height="0.59649"/>
<rect x="13.96491" y="23.32281" width="0.59649" height="0.59649"/>
<rect x="16.35088" y="23.32281" width="0.59649" height="0.59649"/>
<rect x="18.14035" y="23.32281" width="0.59649" height="0.59649"/>
<rect x="18.73684" y="23.32281" width="0.59649" height="0.59649"/>
<rect x="19.33333" y="23.32281" width="0.59649" height="0.59649"/>
<rect x="19.92982" y="23.32281" width="0.59649" height="0.59649"/>
<rect x="24.70175" y="23.32281" width="0.59649" height="0.59649"/>
<rect x="25.89474" y="23.32281" width="0.59649" height="0.59649"/>
<rect x="26.49123" y="23.32281" width="0.59649" height="0.59649"/>
<rect x="27.08772" y="23.32281" width="0.59649" height="0.59649"/>
<rect x="27.68421" y="23.32281" width="0.59649" height="0.59649"/>
<rect x="28.28070" y="23.32281" width="0.59649" height="0.59649"/>
<rect x="29.47368" y="23.32281" width="0.59649" height="0.59649"/>
<rect x="30.07018" y="23.32281" width="0.59649" height="0.59649"/>
<rect x="30.66667" y="23.32281" width="0.59649" height="0.59649"/>
<rect x="31.85965" y="23.32281" width="0.59649" height="0.59649"/>
<rect x="32.45614" y="23.32281" width="0.59649" height="0.59649"/>
<rect x="33.05263" y="23.32281" width="0.59649" height="0.59649"/>
<rect x="35.43860" y="23.32281" width="0.59649" height="0.59649"/>
<rect x="37.82456" y="23.32281" width="0.59649" height="0.59649"/>
<rect x="38.42105" y="23.32281" width="0.59649" height="0.59649"/>
<rect x="39.01754" y="23.32281" width="0.59649" height="0.59649"/>
<rect x="10.38596" y="23.91930" width="0.59649" height="0.59649"/>
<rect x="11.57895" y="23.91930" width="0.59649" height="0.59649"/>
<rect x="12.17544" y="23.91930" width="0.59649" height="0.59649"/>
<rect x="12.77193" y="23.91930" width="0.59649" height="0.59649"/>
<rect x="15.15789" y="23.91930" width="0.59649" height="0.59649"/>
<rect x="16.35088" y="23.91930" width="0.59649" height="0.59649"/>
<rect x="16.94737" y="23.91930" width="0.59649" height="0.59649"/>
<rect x="17.54386" y="23.91930" width="0.59649" height="0.59649"/>
<rect x="18.73684" y="23.91930" width="0.59649" height="0.59649"/>
<rect x="19.33333" y="23.91930" width="0.59649" height="0.59649"/>
<rect x="19.92982" y="23.91930" width="0.59649" height="0.59649"/>
<rect x="21.12281" y="23.91930" width="0.59649" height="0.59649"/>
<rect x="21.71930" y="23.91930" width="0.59649" height="0.59649"/>
<rect x="22.31579" y="23.91930" width="0.59649" height="0.59649"/>
<rect x="22.91228" y="23.91930" width="0.59649" height="0.59649"/>
<rect x="24.10526" y="23.91930" width="0.59649" height="0.59649"/>
<rect x="24.70175" y="23.91930" width="0.59649" height="0.59649"/>
<rect x="25.89474" y="23.91930" width="0.59649" height="0.59649"/>
<rect x="27.08772" y="23.91930" width="0.59649" height="0.59649"/>
<rect x="27.68421" y="23.91930" width="0.59649" height="0.59649"/>
<rect x="29.47368" y="23.91930" width="0.59649" height="0.59649"/>
<rect x="31.26316" y="23.91930" width="0.59649" height="0.59649"/>
<rect x="31.85965" y="23.91930" width="0.59649" height="0.59649"/>
<rect x="33.05263" y="23.91930" width="0.59649" height="0.59649"/>
<rect x="34.24561" y="23.91930" width="0.59649" height="0.59649"/>
<rect x="34.84211" y="23.91930" width="0.59649" height="0.59649"/>
<rect x="36.63158" y="23.91930" width="0.59649" height="0.59649"/>
<rect x="12.17544" y="24.51579" width="0.59649" height="0.59649"/>
<rect x="13.96491" y="24.51579" width="0.59649" height="0.59649"/>
<rect x="15.15789" y="24.51579" width="0.59649" height="0.59649"/>
<rect x="15.75439" y="24.51579" width="0.59649" height="0.59649"/>
<rect x="16.35088" y="24.51579" width="0.59649" height="0.59649"/>
<rect x="16.94737" y="24.51579" width="0.59649" height="0.59649"/>
<rect x="18.73684" y="24.51579" width="0.59649" height="0.59649"/>
<rect x="19.33333" y="24.51579" width="0.59649" height="0.59649"/>
<rect x="20.52632" y="24.51579" width="0.59649" height="0.59649"/>
<rect x="21.71930" y="24.51579" width="0.59649" height="0.59649"/>
<rect x="22.31579" y="24.51579" width="0.59649" height="0.59649"/>
<rect x="24.70175" y="24.51579" width="0.59649" height="0.59649"/>
<rect x="25.29825" y="24.51579" width="0.59649" height="0.59649"/>
<rect x="26.49123" y="24.51579" width="0.59649" height="0.59649"/>
<rect x="27.68421" y="24.51579" width="0.59649" height="0.59649"/>
<rect x="30.66667" y="24.51579" width="0.59649" height="0.59649"/>
<rect x="31.26316" y="24.51579" width="0.59649" height="0.59649"/>
<rect x="31.85965" y="24.51579" width="0.59649" height="0.59649"/>
<rect x="32.45614" y="24.51579" width="0.59649" height="0.59649"/>
<rect x="33.64912" y="24.51579" width="0.59649" height="0.59649"/>
<rect x="35.43860" y="24.51579" width="0.59649" height="0.59649"/>
<rect x="36.03509" y="24.51579" width="0.59649" height="0.59649"/>
<rect x="36.63158" y="24.51579" width="0.59649" height="0.59649"/>
<rect x="37.22807" y="24.51579" width="0.59649" height="0.59649"/>
<rect x="38.42105" y="24.51579" width="0.59649" height="0.59649"/>
<rect x="10.98246" y="25.11228" width="0.59649" height="0.59649"/>
<rect x="12.17544" y="25.11228" width="0.59649" height="0.59649"/>
<rect x="15.15789" y="25.11228" width="0.59649" height="0.59649"/>
<rect x="15.75439" y="25.11228" width="0.59649" height="0.59649"/>
<rect x="17.54386" y="25.11228" width="0.59649" height="0.59649"/>
<rect x="19.92982" y="25.11228" width="0.59649" height="0.59649"/>
<rect x="20.52632" y="25.11228" width="0.59649" height="0.59649"/>
<rect x="21.12281" y="25.11228" width="0.59649" height="0.59649"/>
<rect x="21.71930" y="25.11228" width="0.59649" height="0.59649"/>
<rect x="22.91228" y="25.11228" width="0.59649" height="0.59649"/>
<rect x="23.50877" y="25.11228" width="0.59649" height="0.59649"/>
<rect x="24.10526" y="25.11228" width="0.59649" height="0.59649"/>
<rect x="24.70175" y="25.11228" width="0.59649" height="0.59649"/>
<rect x="25.29825" y="25.11228" width="0.59649" height="0.59649"/>
<rect x="26.49123" y="25.11228" width="0.59649" height="0.59649"/>
<rect x="27.08772" y="25.11228" width="0.59649" height="0.59649"/>
<rect x="29.47368" y="25.11228" width="0.59649" height="0.59649"/>
<rect x="31.26316" y="25.11228" width="0.59649" height="0.59649"/>
<rect x="31.85965" y="25.11228" width="0.59649" height="0.59649"/>
<rect x="32.45614" y="25.11228" width="0.59649" height="0.59649"/>
<rect x="33.64912" y="25.11228" width="0.59649" height="0.59649"/>
<rect x="36.03509" y="25.11228" width="0.59649" height="0.59649"/>
<rect x="38.42105" y="25.11228" width="0.59649" height="0.59649"/>
<rect x="39.01754" y="25.11228" width="0.59649" height="0.59649"/>
<rect x="10.38596" y="25.70877" width="0.59649" height="0.59649"/>
<rect x="11.57895" y="25.70877" width="0.59649" height="0.59649"/>
<rect x="12.77193" y="25.70877" width="0.59649" height="0.59649"/>
<rect x="13.36842" y="25.70877" width="0.59649" height="0.59649"/>
<rect x="13.96491" y="25.70877" width="0.59649" height="0.59649"/>
<rect x="14.56140" y="25.70877" width="0.59649" height="0.59649"/>
<rect x="15.15789" y="25.70877" width="0.59649" height="0.59649"/>
<rect x="15.75439" y="25.70877" width="0.59649" height="0.59649"/>
<rect x="16.35088" y="25.70877" width="0.59649" height="0.59649"/>
<rect x="18.73684" y="25.70877" width="0.59649" height="0.59649"/>
<rect x="19.92982" y="25.70877" width="0.59649" height="0.59649"/>
<rect x="20.52632" y="25.70877" width="0.59649" height="0.59649"/>
<rect x="22.31579" y="25.70877" width="0.59649" height="0.59649"/>
<rect x="22.91228" y="25.70877" width="0.59649" height="0.59649"/>
<rect x="23.50877" y="25.70877" width="0.59649" height="0.59649"/>
<rect x="24.10526" y="25.70877" width="0.59649" height="0.59649"/>
<rect x="24.70175" y="25.70877" width="0.59649" height="0.59649"/>
<rect x="25.29825" y="25.70877" width="0.59649" height="0.59649"/>
<rect x="25.89474" y="25.70877" width="0.59649" height="0.59649"/>
<rect x="26.49123" y="25.70877" width="0.59649" height="0.59649"/>
<rect x="27.08772" y="25.70877" width="0.59649" height="0.59649"/>
<rect x="27.68421" y="25.70877" width="0.59649" height="0.59649"/>
<rect x="28.28070" y="25.70877" width="0.59649" height="0.59649"/>
<rect x="29.47368" y="25.70877" width="0.59649" height="0.59649"/>
<rect x="31.26316" y="25.70877" width="0.59649" height="0.59649"/>
<rect x="33.64912" y="25.70877" width="0.59649" height="0.59649"/>
<rect x="34.24561" y="25.70877" width="0.59649" height="0.59649"/>
<rect x="34.84211" y="25.70877" width="0.59649" height="0.59649"/>
<rect x="35.43860" y="25.70877" width="0.59649" height="0.59649"/>
<rect x="36.03509" y="25.70877" width="0.59649" height="0.59649"/>
<rect x="36.63158" y="25.70877" width="0.59649" height="0.59649"/>
<rect x="37.22807" y="25.70877" width="0.59649" height="0.59649"/>
<rect x="37.82456" y="25.70877" width="0.59649" height="0.59649"/>
<rect x="38.42105" y="25.70877" width="0.59649" height="0.59649"/>
<rect x="39.01754" y="25.70877" width="0.59649" height="0.59649"/>
<rect x="10.98246" y="26.30526" width="0.59649" height="0.59649"/>
<rect x="11.57895" y="26.30526" width="0.59649" height="0.59649"/>
<rect x="12.77193" y="26.30526" width="0.59649" height="0.59649"/>
<rect x="15.15789" y="26.30526" width="0.59649" height="0.59649"/>
<rect x="16.35088" y="26.30526" width="0.59649" height="0.59649"/>
<rect x="18.14035" y="26.30526" width="0.59649" height="0.59649"/>
<rect x="18.73684" y="26.30526" width="0.59649" height="0.59649"/>
<rect x="20.52632" y="26.30526" width="0.59649" height="0.59649"/>
<rect x="21.71930" y="26.30526" width="0.59649" height="0.59649"/>
<rect x="22.31579" y="26.30526" width="0.59649" height="0.59649"/>
<rect x="23.50877" y="26.30526" width="0.59649" height="0.59649"/>
<rect x="25.89474" y="26.30526" width="0.59649" height="0.59649"/>
<rect x="28.28070" y="26.30526" width="0.59649" height="0.59649"/>
<rect x="28.87719" y="26.30526" width="0.59649" height="0.59649"/>
<rect x="30.07018" y="26.30526" width="0.59649" height="0.59649"/>
<rect x="31.85965" y="26.30526" width="0.59649" height="0.59649"/>
<rect x="32.45614" y="26.30526" width="0.59649" height="0.59649"/>
<rect x="33.05263" y="26.30526" width="0.59649" height="0.59649"/>
<rect x="34.24561" y="26.30526" width="0.59649" height="0.59649"/>
<rect x="36.63158" y="26.30526" width="0.59649" height="0.59649"/>
<rect x="10.38596" y="26.90175" width="0.59649" height="0.59649"/>
<rect x="11.57895" y="26.90175" width="0.59649" height="0.59649"/>
<rect x="12.77193" y="26.90175" width="0.59649" height="0.59649"/>
<rect x="13.96491" y="26.90175" width="0.59649" height="0.59649"/>
<rect x="15.15789" y="26.90175" width="0.59649" height="0.59649"/>
<rect x="15.75439" y="26.90175" width="0.59649" height="0.59649"/>
<rect x="16.94737" y="26.90175" width="0.59649" height="0.59649"/>
<rect x="17.54386" y="26.90175" width="0.59649" height="0.59649"/>
<rect x="19.33333" y="26.90175" width="0.59649" height="0.59649"/>
<rect x="19.92982" y="26.90175" width="0.59649" height="0.59649"/>
<rect x="21.71930" y="26.90175" width="0.59649" height="0.59649"/>
<rect x="22.31579" y="26.90175" width="0.59649" height="0.59649"/>
<rect x="23.50877" y="26.90175" width="0.59649" height="0.59649"/>
<rect x="24.70175" y="26.90175" width="0.59649" height="0.59649"/>
<rect x="25.89474" y="26.90175" width="0.59649" height="0.59649"/>
<rect x="27.68421" y="26.90175" width="0.59649" height="0.59649"/>
<rect x="28.28070" y="26.90175" width="0.59649" height="0.59649"/>
<rect x="28.87719" y="26.90175" width="0.59649" height="0.59649"/>
<rect x="31.26316" y="26.90175" width="0.59649" height="0.59649"/>
<rect x="31.85965" y="26.90175" width="0.59649" height="0.59649"/>
<rect x="32.45614" y="26.90175" width="0.59649" height="0.59649"/>
<rect x="33.05263" y="26.90175" width="0.59649" height="0.59649"/>
<rect x="33.64912" y="26.90175" width="0.59649" height="0.59649"/>
<rect x="34.24561" y="26.90175" width="0.59649" height="0.59649"/>
<rect x="35.43860" y="26.90175" width="0.59649" height="0.59649"/>
<rect x="36.63158" y="26.90175" width="0.59649" height="0.59649"/>
<rect x="38.42105" y="26.90175" width="0.59649" height="0.59649"/>
<rect x="39.01754" y="26.90175" width="0.59649" height="0.59649"/>
<rect x="12.77193" y="27.49825" width="0.59649" height="0.59649"/>
<rect x="15.15789" y="27.49825" width="0.59649" height="0.59649"/>
<rect x="15.75439" y="27.49825" width="0.59649" height="0.59649"/>
<rect x="16.35088" y="27.49825" width="0.59649" height="0.59649"/>
<rect x="16.94737" y="27.49825" width="0.59649" height="0.59649"/>
<rect x="17.54386" y="27.49825" width="0.59649" height="0.59649"/>
<rect x="18.73684" y="27.49825" width="0.59649" height="0.59649"/>
<rect x="19.33333" y="27.49825" width="0.59649" height="0.59649"/>
<rect x="19.92982" y="27.49825" width="0.59649" height="0.59649"/>
<rect x="23.50877" y="27.49825" width="0.59649" height="0.59649"/>
<rect x="25.89474" y="27.49825" width="0.59649" height="0.59649"/>
<rect x="27.68421" y="27.49825" width="0.59649" height="0.59649"/>
<rect x="28.28070" y="27.49825" width="0.59649" height="0.59649"/>
<rect x="28.87719" y="27.49825" width="0.59649" height="0.59649"/>
<rect x="29.47368" y="27.49825" width="0.59649" height="0.59649"/>
<rect x="30.07018" y="27.49825" width="0.59649" height="0.59649"/>
<rect x="31.26316" y="27.49825" width="0.59649" height="0.59649"/>
<rect x="33.64912" y="27.49825" width="0.59649" height="0.59649"/>
<rect x="34.24561" y="27.49825" width="0.59649" height="0.59649"/>
<rect x="36.63158" y="27.49825" width="0.59649" height="0.59649"/>
<rect x="37.82456" y="27.49825" width="0.59649" height="0.59649"/>
<rect x="38.42105" y="27.49825" width="0.59649" height="0.59649"/>
<rect x="10.38596" y="28.09474" width="0.59649" height="0.59649"/>
<rect x="10.98246" y="28.09474" width="0.59649" height="0.59649"/>
<rect x="12.77193" y="28.09474" width="0.59649" height="0.59649"/>
<rect x="13.36842" y="28.09474" width="0.59649" height="0.59649"/>
<rect x="13.96491" y="28.09474" width="0.59649" height="0.59649"/>
<rect x="14.56140" y="28.09474" width="0.59649" height="0.59649"/>
<rect x="15.15789" y="28.09474" width="0.59649" height="0.59649"/>
<rect x="15.75439" y="28.09474" width="0.59649" height="0.59649"/>
<rect x="18.73684" y="28.09474" width="0.59649" height="0.59649"/>
<rect x="19.33333" y="28.09474" width="0.59649" height="0.59649"/>
<rect x="19.92982" y="28.09474" width="0.59649" height="0.59649"/>
<rect x="21.12281" y="28.09474" width="0.59649" height="0.59649"/>
<rect x="22.31579" y="28.09474" width="0.59649" height="0.59649"/>
<rect x="23.50877" y="28.09474" width="0.59649" height="0.59649"/>
<rect x="24.10526" y="28.09474" width="0.59649" height="0.59649"/>
<rect x="24.70175" y="28.09474" width="0.59649" height="0.59649"/>
<rect x="25.29825" y="28.09474" width="0.59649" height="0.59649"/>
<rect x="25.89474" y="28.09474" width="0.59649" height="0.59649"/>
<rect x="26.49123" y="28.09474" width="0.59649" height="0.59649"/>
<rect x="28.87719" y="28.09474" width="0.59649" height="0.59649"/>
<rect x="32.45614" y="28.09474" width="0.59649" height="0.59649"/>
<rect x="34.24561" y="28.09474" width="0.59649" height="0.59649"/>
<rect x="34.84211" y="28.09474" width="0.59649" height="0.59649"/>
<rect x="35.43860" y="28.09474" width="0.59649" height="0.59649"/>
<rect x="36.03509" y="28.09474" width="0.59649" height="0.59649"/>
<rect x="36.63158" y="28.09474" width="0.59649" height="0.59649"/>
<rect x="37.22807" y="28.09474" width="0.59649" height="0.59649"/>
<rect x="38.42105" y="28.09474" width="0.59649" height="0.59649"/>
<rect x="12.17544" y="28.69123" width="0.59649" height="0.59649"/>
<rect x="13.36842" y="28.69123" width="0.59649" height="0.59649"/>
<rect x="14.56140" y="28.69123" width="0.59649" height="0.59649"/>
<rect x="15.75439" y="28.69123" width="0.59649" height="0.59649"/>
<rect x="16.94737" y="28.69123" width="0.59649" height="0.59649"/>
<rect x="18.73684" y="28.69123" width="0.59649" height="0.59649"/>
<rect x="22.31579" y="28.69123" width="0.59649" height="0.59649"/>
<rect x="22.91228" y="28.69123" width="0.59649" height="0.59649"/>
<rect x="24.10526" y="28.69123" width="0.59649" height="0.59649"/>
<rect x="24.70175" y="28.69123" width="0.59649" height="0.59649"/>
<rect x="26.49123" y="28.69123" width="0.59649" height="0.59649"/>
<rect x="27.08772" y="28.69123" width="0.59649" height="0.59649"/>
<rect x="27.68421" y="28.69123" width="0.59649" height="0.59649"/>
<rect x="28.87719" y="28.69123" width="0.59649" height="0.59649"/>
<rect x="31.26316" y="28.69123" width="0.59649" height="0.59649"/>
<rect x="31.85965" y="28.69123" width="0.59649" height="0.59649"/>
<rect x="32.45614" y="28.69123" width="0.59649" height="0.59649"/>
<rect x="35.43860" y="28.69123" width="0.59649" height="0.59649"/>
<rect x="38.42105" y="28.69123" width="0.59649" height="0.59649"/>
<rect x="39.01754" y="28.69123" width="0.59649" height="0.59649"/>
<rect x="10.38596" y="29.28772" width="0.59649" height="0.59649"/>
<rect x="11.57895" y="29.28772" width="0.59649" height="0.59649"/>
<rect x="12.17544" y="29.28772" width="0.59649" height="0.59649"/>
<rect x="13.36842" y="29.28772" width="0.59649" height="0.59649"/>
<rect x="13.96491" y="29.28772" width="0.59649" height="0.59649"/>
<rect x="14.56140" y="29.28772" width="0.59649" height="0.59649"/>
<rect x="15.15789" y="29.28772" width="0.59649" height="0.59649"/>
<rect x="16.35088" y="29.28772" width="0.59649" height="0.59649"/>
<rect x="17.54386" y="29.28772" width="0.59649" height="0.59649"/>
<rect x="19.33333" y="29.28772" width="0.59649" height="0.59649"/>
<rect x="20.52632" y="29.28772" width="0.59649" height="0.59649"/>
<rect x="25.29825" y="29.28772" width="0.59649" height="0.59649"/>
<rect x="26.49123" y="29.28772" width="0.59649" height="0.59649"/>
<rect x="27.68421" y="29.28772" width="0.59649" height="0.59649"/>
<rect x="29.47368" y="29.28772" width="0.59649" height="0.59649"/>
<rect x="30.07018" y="29.28772" width="0.59649" height="0.59649"/>
<rect x="30.66667" y="29.28772" width="0.59649" height="0.59649"/>
<rect x="31.26316" y="29.28772" width="0.59649" height="0.59649"/>
<rect x="31.85965" y="29.28772" width="0.59649" height="0.59649"/>
<rect x="32.45614" y="29.28772" width="0.59649" height="0.59649"/>
<rect x="35.43860" y="29.28772" width="0.59649" height="0.59649"/>
<rect x="36.03509" y="29.28772" width="0.59649" height="0.59649"/>
<rect x="36.63158" y="29.28772" width="0.59649" height="0.59649"/>
<rect x="37.82456" y="29.28772" width="0.59649" height="0.59649"/>
<rect x="38.42105" y="29.28772" width="0.59649" height="0.59649"/>
<rect x="10.98246" y="29.88421" width="0.59649" height="0.59649"/>
<rect x="12.77193" y="29.88421" width="0.59649" height="0.59649"/>
<rect x="16.35088" y="29.88421" width="0.59649" height="0.59649"/>
<rect x="16.94737" y="29.88421" width="0.59649" height="0.59649"/>
<rect x="18.73684" y="29.88421" width="0.59649" height="0.59649"/>
<rect x="20.52632" y="29.88421" width="0.59649" height="0.59649"/>
<rect x="21.71930" y="29.88421" width="0.59649" height="0.59649"/>
<rect x="23.50877" y="29.88421" width="0.59649" height="0.59649"/>
<rect x="24.10526" y="29.88421" width="0.59649" height="0.59649"/>
<rect x="24.70175" y="29.88421" width="0.59649" height="0.59649"/>
<rect x="25.29825" y="29.88421" width="0.59649" height="0.59649"/>
<rect x="25.89474" y="29.88421" width="0.59649" height="0.59649"/>
<rect x="27.08772" y="29.88421" width="0.59649" height="0.59649"/>
<rect x="36.03509" y="29.88421" width="0.59649" height="0.59649"/>
<rect x="37.82456" y="29.88421" width="0.59649" height="0.59649"/>
<rect x="39.01754" y="29.88421" width="0.59649" height="0.59649"/>
<rect x="10.38596" y="30.48070" width="0.59649" height="0.59649"/>
<rect x="10.98246" y="30.48070" width="0.59649" height="0.59649"/>
<rect x="11.57895" y="30.48070" width="0.59649" height="0.59649"/>
<rect x="12.17544" y="30.48070" width="0.59649" height="0.59649"/>
<rect x="12.77193" y="30.48070" width="0.59649" height="0.59649"/>
<rect x="13.36842" y="30.48070" width="0.59649" height="0.59649"/>
<rect x="13.96491" y="30.48070" width="0.59649" height="0.59649"/>
<rect x="16.35088" y="30.48070" width="0.59649" height="0.59649"/>
<rect x="16.94737" y="30.48070" width="0.59649" height="0.59649"/>
<rect x="17.54386" y="30.48070" width="0.59649" height="0.59649"/>
<rect x="18.14035" y="30.48070" width="0.59649" height="0.59649"/>
<rect x="19.33333" y="30.48070" width="0.59649" height="0.59649"/>
<rect x="21.12281" y="30.48070" width="0.59649" height="0.59649"/>
<rect x="21.71930" y="30.48070" width="0.59649" height="0.59649"/>
<rect x="22.31579" y="30.48070" width="0.59649" height="0.59649"/>
<rect x="22.91228" y="30.48070" width="0.59649" height="0.59649"/>
<rect x="24.70175" y="30.48070" width="0.59649" height="0.59649"/>
<rect x="25.89474" y="30.48070" width="0.59649" height="0.59649"/>
<rect x="26.49123" y="30.48070" width="0.59649" height="0.59649"/>
<rect x="28.28070" y="30.48070" width="0.59649" height="0.59649"/>
<rect x="29.47368" y="30.48070" width="0.59649" height="0.59649"/>
<rect x="31.85965" y="30.48070" width="0.59649" height="0.59649"/>
<rect x="34.24561" y="30.48070" width="0.59649" height="0.59649"/>
<rect x="35.43860" y="30.48070" width="0.59649" height="0.59649"/>
<rect x="36.03509" y="30.48070" width="0.59649" height="0.59649"/>
<rect x="36.63158" y="30.48070" width="0.59649" height="0.59649"/>
<rect x="37.82456" y="30.48070" width="0.59649" height="0.59649"/>
<rect x="38.42105" y="30.48070" width="0.59649" height="0.59649"/>
<rect x="39.01754" y="30.48070" width="0.59649" height="0.59649"/>
<rect x="11.57895" y="31.07719" width="0.59649" height="0.59649"/>
<rect x="12.77193" y="31.07719" width="0.59649" height="0.59649"/>
<rect x="14.56140" y="31.07719" width="0.59649" height="0.59649"/>
<rect x="15.15789" y="31.07719" width="0.59649" height="0.59649"/>
<rect x="15.75439" y="31.07719" width="0.59649" height="0.59649"/>
<rect x="16.35088" y="31.07719" width="0.59649" height="0.59649"/>
<rect x="18.73684" y="31.07719" width="0.59649" height="0.59649"/>
<rect x="19.33333" y="31.07719" width="0.59649" height="0.59649"/>
<rect x="19.92982" y="31.07719" width="0.59649" height="0.59649"/>
<rect x="20.52632" y="31.07719" width="0.59649" height="0.59649"/>
<rect x="21.12281" y="31.07719" width="0.59649" height="0.59649"/>
<rect x="22.91228" y="31.07719" width="0.59649" height="0.59649"/>
<rect x="25.89474" y="31.07719" width="0.59649" height="0.59649"/>
<rect x="26.49123" y="31.07719" width="0.59649" height="0.59649"/>
<rect x="30.07018" y="31.07719" width="0.59649" height="0.59649"/>
<rect x="30.66667" y="31.07719" width="0.59649" height="0.59649"/>
<rect x="34.84211" y="31.07719" width="0.59649" height="0.59649"/>
<rect x="35.43860" y="31.07719" width="0.59649" height="0.59649"/>
<rect x="36.03509" y="31.07719" width="0.59649" height="0.59649"/>
<rect x="39.01754" y="31.07719" width="0.59649" height="0.59649"/>
<rect x="12.77193" y="31.67368" width="0.59649" height="0.59649"/>
<rect x="13.96491" y="31.67368" width="0.59649" height="0.59649"/>
<rect x="16.94737" y="31.67368" width="0.59649" height="0.59649"/>
<rect x="17.54386" y="31.67368" width="0.59649" height="0.59649"/>
<rect x="18.73684" y="31.67368" width="0.59649" height="0.59649"/>
<rect x="21.12281" y="31.67368" width="0.59649" height="0.59649"/>
<rect x="22.91228" y="31.67368" width="0.59649" height="0.59649"/>
<rect x="24.10526" y="31.67368" width="0.59649" height="0.59649"/>
<rect x="24.70175" y="31.67368" width="0.59649" height="0.59649"/>
<rect x="27.08772" y="31.67368" width="0.59649" height="0.59649"/>
<rect x="27.68421" y="31.67368" width="0.59649" height="0.59649"/>
<rect x="29.47368" y="31.67368" width="0.59649" height="0.59649"/>
<rect x="30.07018" y="31.67368" width="0.59649" height="0.59649"/>
<rect x="30.66667" y="31.67368" width="0.59649" height="0.59649"/>
<rect x="31.85965" y="31.67368" width="0.59649" height="0.59649"/>
<rect x="32.45614" y="31.67368" width="0.59649" height="0.59649"/>
<rect x="34.84211" y="31.67368" width="0.59649" height="0.59649"/>
<rect x="35.43860" y="31.67368" width="0.59649" height="0.59649"/>
<rect x="36.03509" y="31.67368" width="0.59649" height="0.59649"/>
<rect x="37.22807" y="31.67368" width="0.59649" height="0.59649"/>
<rect x="38.42105" y="31.67368" width="0.59649" height="0.59649"/>
<rect x="10.38596" y="32.27018" width="0.59649" height="0.59649"/>
<rect x="10.98246" y="32.27018" width="0.59649" height="0.59649"/>
<rect x="12.17544" y="32.27018" width="0.59649" height="0.59649"/>
<rect x="15.15789" y="32.27018" width="0.59649" height="0.59649"/>
<rect x="15.75439" y="32.27018" width="0.59649" height="0.59649"/>
<rect x="16.35088" y="32.27018" width="0.59649" height="0.59649"/>
<rect x="17.54386" y="32.27018" width="0.59649" height="0.59649"/>
<rect x="18.14035" y="32.27018" width="0.59649" height="0.59649"/>
<rect x="18.73684" y="32.27018" width="0.59649" height="0.59649"/>
<rect x="21.71930" y="32.27018" width="0.59649" height="0.59649"/>
<rect x="22.31579" y="32.27018" width="0.59649" height="0.59649"/>
<rect x="22.91228" y="32.27018" width="0.59649" height="0.59649"/>
<rect x="23.50877" y="32.27018" width="0.59649" height="0.59649"/>
<rect x="24.70175" y="32.27018" width="0.59649" height="0.59649"/>
<rect x="25.29825" y="32.27018" width="0.59649" height="0.59649"/>
<rect x="26.49123" y="32.27018" width="0.59649" height="0.59649"/>
<rect x="27.08772" y="32.27018" width="0.59649" height="0.59649"/>
<rect x="28.28070" y="32.27018" width="0.59649" height="0.59649"/>
<rect x="30.07018" y="32.27018" width="0.59649" height="0.59649"/>
<rect x="33.64912" y="32.27018" width="0.59649" height="0.59649"/>
<rect x="34.24561" y="32.27018" width="0.59649" height="0.59649"/>
<rect x="34.84211" y="32.27018" width="0.59649" height="0.59649"/>
<rect x="36.03509" y="32.27018" width="0.59649" height="0.59649"/>
<rect x="37.22807" y="32.27018" width="0.59649" height="0.59649"/>
<rect x="38.42105" y="32.27018" width="0.59649" height="0.59649"/>
<rect x="39.01754" y="32.27018" width="0.59649" height="0.59649"/>
<rect x="12.17544" y="32.86667" width="0.59649" height="0.59649"/>
<rect x="12.77193" y="32.86667" width="0.59649" height="0.59649"/>
<rect x="13.96491" y="32.86667" width="0.59649" height="0.59649"/>
<rect x="14.56140" y="32.86667" width="0.59649" height="0.59649"/>
<rect x="16.94737" y="32.86667" width="0.59649" height="0.59649"/>
<rect x="18.14035" y="32.86667" width="0.59649" height="0.59649"/>
<rect x="19.92982" y="32.86667" width="0.59649" height="0.59649"/>
<rect x="20.52632" y="32.86667" width="0.59649" height="0.59649"/>
<rect x="22.31579" y="32.86667" width="0.59649" height="0.59649"/>
<rect x="24.70175" y="32.86667" width="0.59649" height="0.59649"/>
<rect x="25.29825" y="32.86667" width="0.59649" height="0.59649"/>
<rect x="26.49123" y="32.86667" width="0.59649" height="0.59649"/>
<rect x="27.08772" y="32.86667" width="0.59649" height="0.59649"/>
<rect x="27.68421" y="32.86667" width="0.59649" height="0.59649"/>
<rect x="29.47368" y="32.86667" width="0.59649" height="0.59649"/>
<rect x="31.85965" y="32.86667" width="0.59649" height="0.59649"/>
<rect x="33.64912" y="32.86667" width="0.59649" height="0.59649"/>
<rect x="34.24561" y="32.86667" width="0.59649" height="0.59649"/>
<rect x="34.84211" y="32.86667" width="0.59649" height="0.59649"/>
<rect x="35.43860" y="32.86667" width="0.59649" height="0.59649"/>
<rect x="36.03509" y="32.86667" width="0.59649" height="0.59649"/>
<rect x="39.01754" y="32.86667" width="0.59649" height="0.59649"/>
<rect x="10.98246" y="33.46316" width="0.59649" height="0.59649"/>
<rect x="12.17544" y="33.46316" width="0.59649" height="0.59649"/>
<rect x="13.36842" y="33.46316" width="0.59649" height="0.59649"/>
<rect x="14.56140" y="33.46316" width="0.59649" height="0.59649"/>
<rect x="15.15789" y="33.46316" width="0.59649" height="0.59649"/>
<rect x="15.75439" y="33.46316" width="0.59649" height="0.59649"/>
<rect x="19.92982" y="33.46316" width="0.59649" height="0.59649"/>
<rect x="21.12281" y="33.46316" width="0.59649" height="0.59649"/>
<rect x="21.71930" y="33.46316" width="0.59649" height="0.59649"/>
<rect x="22.91228" y="33.46316" width="0.59649" height="0.59649"/>
<rect x="23.50877" y="33.46316" width="0.59649" height="0.59649"/>
<rect x="24.10526" y="33.46316" width="0.59649" height="0.59649"/>
<rect x="25.29825" y="33.46316" width="0.59649" height="0.59649"/>
<rect x="29.47368" y="33.46316" width="0.59649" height="0.59649"/>
<rect x="31.26316" y="33.46316" width="0.59649" height="0.59649"/>
<rect x="31.85965" y="33.46316" width="0.59649" height="0.59649"/>
<rect x="32.45614" y="33.46316" width="0.59649" height="0.59649"/>
<rect x="34.24561" y="33.46316" width="0.59649" height="0.59649"/>
<rect x="34.84211" y="33.46316" width="0.59649" height="0.59649"/>
<rect x="36.03509" y="33.46316" width="0.59649" height="0.59649"/>
<rect x="38.42105" y="33.46316" width="0.59649" height="0.59649"/>
<rect x="10.98246" y="34.05965" width="0.59649" height="0.59649"/>
<rect x="11.57895" y="34.05965" width="0.59649" height="0.59649"/>
<rect x="12.17544" y="34.05965" width="0.59649" height="0.59649"/>
<rect x="13.96491" y="34.05965" width="0.59649" height="0.59649"/>
<rect x="14.56140" y="34.05965" width="0.59649" height="0.59649"/>
<rect x="15.15789" y="34.05965" width="0.59649" height="0.59649"/>
<rect x="15.75439" y="34.05965" width="0.59649" height="0.59649"/>
<rect x="16.35088" y="34.05965" width="0.59649" height="0.59649"/>
<rect x="16.94737" y="34.05965" width="0.59649" height="0.59649"/>
<rect x="17.54386" y="34.05965" width="0.59649" height="0.59649"/>
<rect x="18.73684" y="34.05965" width="0.59649" height="0.59649"/>
<rect x="19.92982" y="34.05965" width="0.59649" height="0.59649"/>
<rect x="22.91228" y="34.05965" width="0.59649" height="0.59649"/>
<rect x="24.70175" y="34.05965" width="0.59649" height="0.59649"/>
<rect x="25.89474" y="34.05965" width="0.59649" height="0.59649"/>
<rect x="27.08772" y="34.05965" width="0.59649" height="0.59649"/>
<rect x="29.47368" y="34.05965" width="0.59649" height="0.59649"/>
<rect x="30.66667" y="34.05965" width="0.59649" height="0.59649"/>
<rect x="31.85965" y="34.05965" width="0.59649" height="0.59649"/>
<rect x="33.05263" y="34.05965" width="0.59649" height="0.59649"/>
<rect x="34.24561" y="34.05965" width="0.59649" height="0.59649"/>
<rect x="35.43860" y="34.05965" width="0.59649" height="0.59649"/>
<rect x="38.42105" y="34.05965" width="0.59649" height="0.59649"/>
<rect x="39.01754" y="34.05965" width="0.59649" height="0.59649"/>
<rect x="10.38596" y="34.65614" width="0.59649" height="0.59649"/>
<rect x="13.36842" y="34.65614" width="0.59649" height="0.59649"/>
<rect x="15.75439" y="34.65614" width="0.59649" height="0.59649"/>
<rect x="16.35088" y="34.65614" width="0.59649" height="0.59649"/>
<rect x="18.73684" y="34.65614" width="0.59649" height="0.59649"/>
<rect x="19.33333" y="34.65614" width="0.59649" height="0.59649"/>
<rect x="20.52632" y="34.65614" width="0.59649" height="0.59649"/>
<rect x="21.71930" y="34.65614" width="0.59649" height="0.59649"/>
<rect x="23.50877" y="34.65614" width="0.59649" height="0.59649"/>
<rect x="24.10526" y="34.65614" width="0.59649" height="0.59649"/>
<rect x="24.70175" y="34.65614" width="0.59649" height="0.59649"/>
<rect x="25.29825" y="34.65614" width="0.59649" height="0.59649"/>
<rect x="25.89474" y="34.65614" width="0.59649" height="0.59649"/>
<rect x="27.08772" y="34.65614" width="0.59649" height="0.59649"/>
<rect x="28.28070" y="34.65614" width="0.59649" height="0.59649"/>
<rect x="28.87719" y="34.65614" width="0.59649" height="0.59649"/>
<rect x="30.07018" y="34.65614" width="0.59649" height="0.59649"/>
<rect x="32.45614" y="34.65614" width="0.59649" height="0.59649"/>
<rect x="34.24561" y="34.65614" width="0.59649" height="0.59649"/>
<rect x="37.82456" y="34.65614" width="0.59649" height="0.59649"/>
<rect x="38.42105" y="34.65614" width="0.59649" height="0.59649"/>
<rect x="39.01754" y="34.65614" width="0.59649" height="0.59649"/>
<rect x="10.98246" y="35.25263" width="0.59649" height="0.59649"/>
<rect x="13.36842" y="35.25263" width="0.59649" height="0.59649"/>
<rect x="13.96491" y="35.25263" width="0.59649" height="0.59649"/>
<rect x="14.56140" y="35.25263" width="0.59649" height="0.59649"/>
<rect x="15.15789" y="35.25263" width="0.59649" height="0.59649"/>
<rect x="15.75439" y="35.25263" width="0.59649" height="0.59649"/>
<rect x="17.54386" y="35.25263" width="0.59649" height="0.59649"/>
<rect x="18.14035" y="35.25263" width="0.59649" height="0.59649"/>
<rect x="18.73684" y="35.25263" width="0.59649" height="0.59649"/>
<rect x="21.12281" y="35.25263" width="0.59649" height="0.59649"/>
<rect x="22.91228" y="35.25263" width="0.59649" height="0.59649"/>
<rect x="23.50877" y="35.25263" width="0.59649" height="0.59649"/>
<rect x="24.10526" y="35.25263" width="0.59649" height="0.59649"/>
<rect x="25.29825" y="35.25263" width="0.59649" height="0.59649"/>
<rect x="27.68421" y="35.25263" width="0.59649" height="0.59649"/>
<rect x="29.47368" y="35.25263" width="0.59649" height="0.59649"/>
<rect x="30.07018" y="35.25263" width="0.59649" height="0.59649"/>
<rect x="31.85965" y="35.25263" width="0.59649" height="0.59649"/>
<rect x="32.45614" y="35.25263" width="0.59649" height="0.59649"/>
<rect x="33.64912" y="35.25263" width="0.59649" height="0.59649"/>
<rect x="34.84211" y="35.25263" width="0.59649" height="0.59649"/>
<rect x="35.43860" y="35.25263" width="0.59649" height="0.59649"/>
<rect x="36.03509" y="35.25263" width="0.59649" height="0.59649"/>
<rect x="36.63158" y="35.25263" width="0.59649" height="0.59649"/>
<rect x="38.42105" y="35.25263" width="0.59649" height="0.59649"/>
<rect x="39.01754" y="35.25263" width="0.59649" height="0.59649"/>
<rect x="10.98246" y="35.84912" width="0.59649" height="0.59649"/>
<rect x="11.57895" y="35.84912" width="0.59649" height="0.59649"/>
<rect x="12.17544" y="35.84912" width="0.59649" height="0.59649"/>
<rect x="14.56140" y="35.84912" width="0.59649" height="0.59649"/>
<rect x="15.15789" y="35.84912" width="0.59649" height="0.59649"/>
<rect x="17.54386" y="35.84912" width="0.59649" height="0.59649"/>
<rect x="18.73684" y="35.84912" width="0.59649" height="0.59649"/>
<rect x="21.71930" y="35.84912" width="0.59649" height="0.59649"/>
<rect x="22.31579" y="35.84912" width="0.59649" height="0.59649"/>
<rect x="22.91228" y="35.84912" width="0.59649" height="0.59649"/>
<rect x="23.50877" y="35.84912" width="0.59649" height="0.59649"/>
<rect x="24.70175" y="35.84912" width="0.59649" height="0.59649"/>
<rect x="25.29825" y="35.84912" width="0.59649" height="0.59649"/>
<rect x="25.89474" y="35.84912" width="0.59649" height="0.59649"/>
<rect x="26.49123" y="35.84912" width="0.59649" height="0.59649"/>
<rect x="27.08772" y="35.84912" width="0.59649" height="0.59649"/>
<rect x="29.47368" y="35.84912" width="0.59649" height="0.59649"/>
<rect x="30.66667" y="35.84912" width="0.59649" height="0.59649"/>
<rect x="31.85965" y="35.84912" width="0.59649" height="0.59649"/>
<rect x="33.05263" y="35.84912" width="0.59649" height="0.59649"/>
<rect x="35.43860" y="35.84912" width="0.59649" height="0.59649"/>
<rect x="37.82456" y="35.84912" width="0.59649" height="0.59649"/>
<rect x="10.38596" y="36.44561" width="0.59649" height="0.59649"/>
<rect x="10.98246" y="36.44561" width="0.59649" height="0.59649"/>
<rect x="11.57895" y="36.44561" width="0.59649" height="0.59649"/>
<rect x="13.96491" y="36.44561" width="0.59649" height="0.59649"/>
<rect x="14.56140" y="36.44561" width="0.59649" height="0.59649"/>
<rect x="15.75439" y="36.44561" width="0.59649" height="0.59649"/>
<rect x="16.94737" y="36.44561" width="0.59649" height="0.59649"/>
<rect x="17.54386" y="36.44561" width="0.59649" height="0.59649"/>
<rect x="19.33333" y="36.44561" width="0.59649" height="0.59649"/>
<rect x="19.92982" y="36.44561" width="0.59649" height="0.59649"/>
<rect x="21.71930" y="36.44561" width="0.59649" height="0.59649"/>
<rect x="22.31579" y="36.44561" width="0.59649" height="0.59649"/>
<rect x="23.50877" y="36.44561" width="0.59649" height="0.59649"/>
<rect x="24.10526" y="36.44561" width="0.59649" height="0.59649"/>
<rect x="24.70175" y="36.44561" width="0.59649" height="0.59649"/>
<rect x="25.29825" y="36.44561" width="0.59649" height="0.59649"/>
<rect x="25.89474" y="36.44561" width="0.59649" height="0.59649"/>
<rect x="27.08772" y="36.44561" width="0.59649" height="0.59649"/>
<rect x="27.68421" y="36.44561" width="0.59649" height="0.59649"/>
<rect x="29.47368" y="36.44561" width="0.59649" height="0.59649"/>
<rect x="31.26316" y="36.44561" width="0.59649" height="0.59649"/>
<rect x="31.85965" y="36.44561" width="0.59649" height="0.59649"/>
<rect x="34.24561" y="36.44561" width="0.59649" height="0.59649"/>
<rect x="34.84211" y="36.44561" width="0.59649" height="0.59649"/>
<rect x="35.43860" y="36.44561" width="0.59649" height="0.59649"/>
<rect x="36.03509" y="36.44561" width="0.59649" height="0.59649"/>
<rect x="36.63158" y="36.44561" width="0.59649" height="0.59649"/>
<rect x="37.82456" y="36.44561" width="0.59649" height="0.59649"/>
<rect x="15.15789" y="37.04211" width="0.59649" height="0.59649"/>
<rect x="19.33333" y="37.04211" width="0.59649" height="0.59649"/>
<rect x="19.92982" y="37.04211" width="0.59649" height="0.59649"/>
<rect x="20.52632" y="37.04211" width="0.59649" height="0.59649"/>
<rect x="21.12281" y="37.04211" width="0.59649" height="0.59649"/>
<rect x="22.31579" y="37.04211" width="0.59649" height="0.59649"/>
<rect x="22.91228" y="37.04211" width="0.59649" height="0.59649"/>
<rect x="23.50877" y="37.04211" width="0.59649" height="0.59649"/>
<rect x="25.89474" y="37.04211" width="0.59649" height="0.59649"/>
<rect x="28.28070" y="37.04211" width="0.59649" height="0.59649"/>
<rect x="29.47368" y="37.04211" width="0.59649" height="0.59649"/>
<rect x="30.66667" y="37.04211" width="0.59649" height="0.59649"/>
<rect x="33.05263" y="37.04211" width="0.59649" height="0.59649"/>
<rect x="34.24561" y="37.04211" width="0.59649" height="0.59649"/>
<rect x="36.63158" y="37.04211" width="0.59649" height="0.59649"/>
<rect x="38.42105" y="37.04211" width="0.59649" height="0.59649"/>
<rect x="39.01754" y="37.04211" width="0.59649" height="0.59649"/>
<rect x="10.38596" y="37.63860" width="0.59649" height="0.59649"/>
<rect x="10.98246" y="37.63860" width="0.59649" height="0.59649"/>
<rect x="11.57895" y="37.63860" width="0.59649" height="0.59649"/>
<rect x="12.17544" y="37.63860" width="0.59649" height="0.59649"/>
<rect x="12.77193" y="37.63860" width="0.59649" height="0.59649"/>
<rect x="13.36842" y="37.63860" width="0.59649" height="0.59649"/>
<rect x="13.96491" y="37.63860" width="0.59649" height="0.59649"/>
<rect x="15.75439" y="37.63860" width="0.59649" height="0.59649"/>
<rect x="16.94737" y="37.63860" width="0.59649" height="0.59649"/>
<rect x="18.73684" y="37.63860" width="0.59649" height="0.59649"/>
<rect x="19.33333" y="37.63860" width="0.59649" height="0.59649"/>
<rect x="19.92982" y="37.63860" width="0.59649" height="0.59649"/>
<rect x="20.52632" y="37.63860" width="0.59649" height="0.59649"/>
<rect x="21.71930" y="37.63860" width="0.59649" height="0.59649"/>
<rect x="22.91228" y="37.63860" width="0.59649" height="0.59649"/>
<rect x="23.50877" y="37.63860" width="0.59649" height="0.59649"/>
<rect x="24.70175" y="37.63860" width="0.59649" height="0.59649"/>
<rect x="25.89474" y="37.63860" width="0.59649" height="0.59649"/>
<rect x="27.08772" y="37.63860" width="0.59649" height="0.59649"/>
<rect x="27.68421" y="37.63860" width="0.59649" height="0.59649"/>
<rect x="28.28070" y="37.63860" width="0.59649" height="0.59649"/>
<rect x="28.87719" y="37.63860" width="0.59649" height="0.59649"/>
<rect x="30.66667" y="37.63860" width="0.59649" height="0.59649"/>
<rect x="31.26316" y="37.63860" width="0.59649" height="0.59649"/>
<rect x="31.85965" y="37.63860" width="0.59649" height="0.59649"/>
<rect x="33.05263" y="37.63860" width="0.59649" height="0.59649"/>
<rect x="33.64912" y="37.63860" width="0.59649" height="0.59649"/>
<rect x="34.24561" y="37.63860" width="0.59649" height="0.59649"/>
<rect x="35.43860" y="37.63860" width="0.59649" height="0.59649"/>
<rect x="36.63158" y="37.63860" width="0.59649" height="0.59649"/>
<rect x="37.82456" y="37.63860" width="0.59649" height="0.59649"/>
<rect x="38.42105" y="37.63860" width="0.59649" height="0.59649"/>
<rect x="39.01754" y="37.63860" width="0.59649" height="0.59649"/>
<rect x="10.38596" y="38.23509" width="0.59649" height="0.59649"/>
<rect x="13.96491" y="38.23509" width="0.59649" height="0.59649"/>
<rect x="15.15789" y="38.23509" width="0.59649" height="0.59649"/>
<rect x="16.35088" y="38.23509" width="0.59649" height="0.59649"/>
<rect x="18.14035" y="38.23509" width="0.59649" height="0.59649"/>
<rect x="18.73684" y="38.23509" width="0.59649" height="0.59649"/>
<rect x="19.92982" y="38.23509" width="0.59649" height="0.59649"/>
<rect x="20.52632" y="38.23509" width="0.59649" height="0.59649"/>
<rect x="21.12281" y="38.23509" width="0.59649" height="0.59649"/>
<rect x="21.71930" y="38.23509" width="0.59649" height="0.59649"/>
<rect x="22.91228" y="38.23509" width="0.59649" height="0.59649"/>
<rect x="23.50877" y="38.23509" width="0.59649" height="0.59649"/>
<rect x="25.89474" y="38.23509" width="0.59649" height="0.59649"/>
<rect x="26.49123" y="38.23509" width="0.59649" height="0.59649"/>
<rect x="28.28070" y="38.23509" width="0.59649" height="0.59649"/>
<rect x="29.47368" y="38.23509" width="0.59649" height="0.59649"/>
<rect x="30.66667" y="38.23509" width="0.59649" height="0.59649"/>
<rect x="31.26316" y="38.23509" width="0.59649" height="0.59649"/>
<rect x="31.85965" y="38.23509" width="0.59649" height="0.59649"/>
<rect x="33.05263" y="38.23509" width="0.59649" height="0.59649"/>
<rect x="33.64912" y="38.23509" width="0.59649" height="0.59649"/>
<rect x="34.24561" y="38.23509" width="0.59649" height="0.59649"/>
<rect x="36.63158" y="38.23509" width="0.59649" height="0.59649"/>
<rect x="10.38596" y="38.83158" width="0.59649" height="0.59649"/>
<rect x="11.57895" y="38.83158" width="0.59649" height="0.59649"/>
<rect x="12.17544" y="38.83158" width="0.59649" height="0.59649"/>
<rect x="12.77193" y="38.83158" width="0.59649" height="0.59649"/>
<rect x="13.96491" y="38.83158" width="0.59649" height="0.59649"/>
<rect x="15.15789" y="38.83158" width="0.59649" height="0.59649"/>
<rect x="15.75439" y="38.83158" width="0.59649" height="0.59649"/>
<rect x="16.94737" y="38.83158" width="0.59649" height="0.59649"/>
<rect x="17.54386" y="38.83158" width="0.59649" height="0.59649"/>
<rect x="18.14035" y="38.83158" width="0.59649" height="0.59649"/>
<rect x="18.73684" y="38.83158" width="0.59649" height="0.59649"/>
<rect x="22.31579" y="38.83158" width="0.59649" height="0.59649"/>
<rect x="22.91228" y="38.83158" width="0.59649" height="0.59649"/>
<rect x="23.50877" y="38.83158" width="0.59649" height="0.59649"/>
<rect x="24.10526" y="38.83158" width="0.59649" height="0.59649"/>
<rect x="24.70175" y="38.83158" width="0.59649" height="0.59649"/>
<rect x="25.29825" y="38.83158" width="0.59649" height="0.59649"/>
<rect x="25.89474" y="38.83158" width="0.59649" height="0.59649"/>
<rect x="27.68421" y="38.83158" width="0.59649" height="0.59649"/>
<rect x="28.87719" y="38.83158" width="0.59649" height="0.59649"/>
<rect x="29.47368" y="38.83158" width="0.59649" height="0.59649"/>
<rect x="30.07018" y="38.83158" width="0.59649" height="0.59649"/>
<rect x="30.66667" y="38.83158" width="0.59649" height="0.59649"/>
<rect x="31.26316" y="38.83158" width="0.59649" height="0.59649"/>
<rect x="31.85965" y="38.83158" width="0.59649" height="0.59649"/>
<rect x="32.45614" y="38.83158" width="0.59649" height="0.59649"/>
<rect x="34.24561" y="38.83158" width="0.59649" height="0.59649"/>
<rect x="34.84211" y="38.83158" width="0.59649" height="0.59649"/>
<rect x="35.43860" y="38.83158" width="0.59649" height="0.59649"/>
<rect x="36.03509" y="38.83158" width="0.59649" height="0.59649"/>
<rect x="36.63158" y="38.83158" width="0.59649" height="0.59649"/>
<rect x="37.22807" y="38.83158" width="0.59649" height="0.59649"/>
<rect x="38.42105" y="38.83158" width="0.59649" height="0.59649"/>
<rect x="10.38596" y="39.42807" width="0.59649" height="0.59649"/>
<rect x="11.57895" y="39.42807" width="0.59649" height="0.59649"/>
<rect x="12.17544" y="39.42807" width="0.59649" height="0.59649"/>
<rect x="12.77193" y="39.42807" width="0.59649" height="0.59649"/>
<rect x="13.96491" y="39.42807" width="0.59649" height="0.59649"/>
<rect x="16.35088" y="39.42807" width="0.59649" height="0.59649"/>
<rect x="17.54386" y="39.42807" width="0.59649" height="0.59649"/>
<rect x="18.14035" y="39.42807" width="0.59649" height="0.59649"/>
<rect x="18.73684" y="39.42807" width="0.59649" height="0.59649"/>
<rect x="19.33333" y="39.42807" width="0.59649" height="0.59649"/>
<rect x="20.52632" y="39.42807" width="0.59649" height="0.59649"/>
<rect x="21.12281" y="39.42807" width="0.59649" height="0.59649"/>
<rect x="21.71930" y="39.42807" width="0.59649" height="0.59649"/>
<rect x="22.31579" y="39.42807" width="0.59649" height="0.59649"/>
<rect x="25.89474" y="39.42807" width="0.59649" height="0.59649"/>
<rect x="29.47368" y="39.42807" width="0.59649" height="0.59649"/>
<rect x="30.07018" y="39.42807" width="0.59649" height="0.59649"/>
<rect x="31.85965" y="39.42807" width="0.59649" height="0.59649"/>
<rect x="35.43860" y="39.42807" width="0.59649" height="0.59649"/>
<rect x="36.03509" y="39.42807" width="0.59649" height="0.59649"/>
<rect x="38.42105" y="39.42807" width="0.59649" height="0.59649"/>
<rect x="10.38596" y="40.02456" width="0.59649" height="0.59649"/>
<rect x="11.57895" y="40.02456" width="0.59649" height="0.59649"/>
<rect x="12.17544" y="40.02456" width="0.59649" height="0.59649"/>
<rect x="12.77193" y="40.02456" width="0.59649" height="0.59649"/>
<rect x="13.96491" y="40.02456" width="0.59649" height="0.59649"/>
<rect x="15.15789" y="40.02456" width="0.59649" height="0.59649"/>
<rect x="15.75439" y="40.02456" width="0.59649" height="0.59649"/>
<rect x="16.94737" y="40.02456" width="0.59649" height="0.59649"/>
<rect x="19.92982" y="40.02456" width="0.59649" height="0.59649"/>
<rect x="22.31579" y="40.02456" width="0.59649" height="0.59649"/>
<rect x="22.91228" y="40.02456" width="0.59649" height="0.59649"/>
<rect x="23.50877" y="40.02456" width="0.59649" height="0.59649"/>
<rect x="25.29825" y="40.02456" width="0.59649" height="0.59649"/>
<rect x="27.08772" y="40.02456" width="0.59649" height="0.59649"/>
<rect x="29.47368" y="40.02456" width="0.59649" height="0.59649"/>
<rect x="31.26316" y="40.02456" width="0.59649" height="0.59649"/>
<rect x="34.24561" y="40.02456" width="0.59649" height="0.59649"/>
<rect x="35.43860" y="40.02456" width="0.59649" height="0.59649"/>
<rect x="36.03509" y="40.02456" width="0.59649" height="0.59649"/>
<rect x="36.63158" y="40.02456" width="0.59649" height="0.59649"/>
<rect x="37.82456" y="40.02456" width="0.59649" height="0.59649"/>
<rect x="38.42105" y="40.02456" width="0.59649" height="0.59649"/>
<rect x="39.01754" y="40.02456" width="0.59649" height="0.59649"/>
<rect x="10.38596" y="40.62105" width="0.59649" height="0.59649"/>
<rect x="13.96491" y="40.62105" width="0.59649" height="0.59649"/>
<rect x="16.35088" y="40.62105" width="0.59649" height="0.59649"/>
<rect x="16.94737" y="40.62105" width="0.59649" height="0.59649"/>
<rect x="19.92982" y="40.62105" width="0.59649" height="0.59649"/>
<rect x="21.71930" y="40.62105" width="0.59649" height="0.59649"/>
<rect x="23.50877" y="40.62105" width="0.59649" height="0.59649"/>
<rect x="24.70175" y="40.62105" width="0.59649" height="0.59649"/>
<rect x="25.29825" y="40.62105" width="0.59649" height="0.59649"/>
<rect x="25.89474" y="40.62105" width="0.59649" height="0.59649"/>
<rect x="27.68421" y="40.62105" width="0.59649" height="0.59649"/>
<rect x="28.28070" y="40.62105" width="0.59649" height="0.59649"/>
<rect x="28.87719" y="40.62105" width="0.59649" height="0.59649"/>
<rect x="29.47368" y="40.62105" width="0.59649" height="0.59649"/>
<rect x="30.66667" y="40.62105" width="0.59649" height="0.59649"/>
<rect x="31.26316" y="40.62105" width="0.59649" height="0.59649"/>
<rect x="31.85965" y="40.62105" width="0.59649" height="0.59649"/>
<rect x="38.42105" y="40.62105" width="0.59649" height="0.59649"/>
<rect x="10.38596" y="41.21754" width="0.59649" height="0.59649"/>
<rect x="10.98246" y="41.21754" width="0.59649" height="0.59649"/>
<rect x="11.57895" y="41.21754" width="0.59649" height="0.59649"/>
<rect x="12.17544" y="41.21754" width="0.59649" height="0.59649"/>
<rect x="12.77193" y="41.21754" width="0.59649" height="0.59649"/>
<rect x="13.36842" y="41.21754" width="0.59649" height="0.59649"/>
<rect x="13.96491" y="41.21754" width="0.59649" height="0.59649"/>
<rect x="15.75439" y="41.21754" width="0.59649" height="0.59649"/>
<rect x="19.33333" y="41.21754" width="0.59649" height="0.59649"/>
<rect x="19.92982" y="41.21754" width="0.59649" height="0.59649"/>
<rect x="24.10526" y="41.21754" width="0.59649" height="0.59649"/>
<rect x="25.29825" y="41.21754" width="0.59649" height="0.59649"/>
<rect x="26.49123" y="41.21754" width="0.59649" height="0.59649"/>
<rect x="27.08772" y="41.21754" width="0.59649" height="0.59649"/>
<rect x="28.87719" y="41.21754" width="0.59649" height="0.59649"/>
<rect x="29.47368" y="41.21754" width="0.59649" height="0.59649"/>
<rect x="31.26316" y="41.21754" width="0.59649" height="0.59649"/>
<rect x="31.85965" y="41.21754" width="0.59649" height="0.59649"/>
<rect x="33.05263" y="41.21754" width="0.59649" height="0.59649"/>
<rect x="34.24561" y="41.21754" width="0.59649" height="0.59649"/>
<rect x="34.84211" y="41.21754" width="0.59649" height="0.59649"/>
<rect x="35.43860" y="41.21754" width="0.59649" height="0.59649"/>
<rect x="36.63158" y="41.21754" width="0.59649" height="0.59649"/>
<rect x="38.42105" y="41.21754" width="0.59649" height="0.59649"/>
<rect x="39.01754" y="41.21754" width="0.59649" height="0.59649"/>
  </g>
  <text x="25" y="47.6" text-anchor="middle" font-family="Arial, Helvetica, sans-serif" font-size="3.55" font-weight="700" fill="#000">Lucas Werny</text>
  <text x="25" y="51.3" text-anchor="middle" font-family="Arial, Helvetica, sans-serif" font-size="2.65" fill="#000">Conseiller immobilier</text>
  <text x="25" y="55.0" text-anchor="middle" font-family="Arial, Helvetica, sans-serif" font-size="2.45" font-weight="700" fill="#000">Scannez pour me contacter</text>
  <text x="25" y="58.3" text-anchor="middle" font-family="Arial, Helvetica, sans-serif" font-size="2.25" fill="#000">TEL Appeler   WhatsApp   Email</text>
</svg>

